<?xml version="1.0" standalone="no"?>
<!DOCTYPE svg PUBLIC "-//W3C//DTD SVG 1.1//EN" "http://www.w3.org/Graphics/SVG/1.1/DTD/svg11.dtd" >
<!--
2013-9-30: Created.
-->
<svg>
<metadata>
Created by iconfont
</metadata>
<defs>

<font id="iconfont" horiz-adv-x="1024" >
  <font-face
    font-family="iconfont"
    font-weight="500"
    font-stretch="normal"
    units-per-em="1024"
    ascent="896"
    descent="-128"
  />
    <missing-glyph />
    
    <glyph glyph-name="shoucangjia" unicode="&#58889;" d="M781.186088 279.968127q17.338645-80.573705 30.59761-145.848606 6.119522-27.537849 11.219124-55.075697t9.689243-49.976096 7.649402-38.247012 4.079681-19.888446q3.059761-20.398406-9.179283-27.027888t-27.537849-6.629482q-5.099602 0-14.788845 3.569721t-14.788845 5.609562l-266.199203 155.027888q-72.414343-42.836653-131.569721-76.494024-25.498008-14.278884-50.486056-28.557769t-45.386454-26.517928-35.187251-20.398406-19.888446-10.199203q-10.199203-5.099602-20.908367-3.569721t-19.378486 7.649402-12.749004 14.788845-2.039841 17.848606q1.01992 4.079681 5.099602 19.888446t9.179283 37.737052 11.729084 48.446215 13.768924 54.055777q15.298805 63.23506 34.677291 142.788845-60.175299 52.015936-108.111554 92.812749-20.398406 17.338645-40.286853 34.167331t-35.697211 30.59761-26.007968 22.438247-11.219124 9.689243q-12.239044 11.219124-20.908367 24.988048t-6.629482 28.047809 11.219124 22.438247 20.398406 10.199203l315.155378 28.557769 117.290837 273.338645q6.119522 16.318725 17.338645 28.047809t30.59761 11.729084q10.199203 0 17.848606-4.589641t12.749004-10.709163 8.669323-12.239044 5.609562-10.199203l114.231076-273.338645 315.155378-29.577689q20.398406-5.099602 28.557769-12.239044t8.159363-22.438247q0-14.278884-8.669323-24.988048t-21.928287-26.007968z"  horiz-adv-x="1024" />

    
    <glyph glyph-name="tupian" unicode="&#58907;" d="M910.7727 753.8013H118.08589736927314c-22.6436 0-40.9999-18.3556-40.9999-41.0002V-79.85345935455757c0-22.6426 18.3563-40.9982 40.9999-40.9982h792.6878505270648c22.6436 0 40.9999 18.3556 40.9999 40.9982V712.8011208400704C951.7737 735.4458 933.4173 753.8013 910.7727 753.8013zM924.4391-66.1857c0-15.0958-12.2362-27.3325-27.3326-27.3325H131.75220559724016c-15.0964 0-27.3336 12.2377-27.3336 27.3325v765.3211122858702c0 15.0958 12.2382 27.3325 27.3336 27.3325h765.3552340711308c15.0964 0 27.3326-12.2377 27.3326-27.3325L924.4391-66.1857 924.4391-66.1857zM329.7683 578.8719c-42.9397 0-77.7496-34.8054-77.7496-77.7443 0-42.9379 34.8099-77.7493 77.7496-77.7493 42.9427 0 77.7525 34.8114 77.7525 77.7493C407.5198 544.0665 372.711 578.8719 329.7683 578.8719zM322.0002 311.2903c56.8628 0 104.4486-109.3319 150.3384-109.3319 45.8878 0 222.1817 218.6637 273.3402 218.6637 27.5525 0 108.6729-110.9897 177.671-213.4193v45.2403270582545c-68.9981 102.4296-150.1185 213.4193-177.671 213.4193-51.1585 0-227.4523-218.6637-273.3402-218.6637-45.8898 0-93.4755 109.3319-150.3384 109.3319-33.9174 0-139.2175-92.3904-218.6719-166.9508v-45.2403270582545C182.7837 218.899 288.0828 311.2903 322.0002 311.2903z"  horiz-adv-x="1000" />

    
    <glyph glyph-name="icon1" unicode="&#58963;" d="M511.999488 764.113363C255.676635 764.113363 47.886125 556.322853 47.886125 300S255.676635-164.113363 511.999488-164.113363s464.113363 207.79051 464.113363 464.113363S768.322341 764.113363 511.999488 764.113363zM739.332077 213.991114l0-3.313465 0-3.101641-0.557702-3.730974-0.800225-6.39771-1.118474-5.78782-1.705851-5.229095-0.62831-2.143826-1.186012-2.545986-1.00898-1.794879-1.326205-2.212388-1.186012-1.379417-1.49812-1.794879-1.325182-1.428535-1.429559-1.255597-1.708921-0.750083-1.532913-0.747014-1.255597-0.418532-1.096984 0-0.818645 0-1.240247 0.418532-2.352581 1.14815-1.081635 0.76748-1.116427 0.837064-1.237177 1.096984-1.237177 1.239224-2.057869 2.266623-2.439562 3.241834-1.918699 3.311419-1.916653 2.684132-1.865487 3.101641-2.632967 5.508457-2.963495 5.735631-0.347924 0.193405-0.48914 0-1.219781-0.890276-0.696872-1.515516-1.151219-1.848091-2.023076-5.597485-3.032056-7.931646-3.90596-9.500375-2.927679-4.757351-3.085268-4.950755-3.645017-5.579065-3.868097-5.473665-1.987261-2.476401-2.405793-2.684132-5.525853-5.436826 0.487094-0.490164 0.750083-0.765433 2.75474-1.64036 11.502985-5.508457 5.021364-2.824325 4.776793-2.75474 4.742001-3.449565 4.218068-3.592828 2.056845-1.586125 1.535983-1.866511 1.565658-2.124384 1.326205-2.354628 0.697895-1.935072 0.871857-2.336208 0.349971-1.987261 0.418532-2.352581-0.418532-1.586125 0-1.569752-0.349971-1.673106-0.871857-1.49812-0.347924-1.186012-0.768503-1.429559-2.091638-2.840698-1.917676-2.284019-1.499144-1.707898-1.254573-1.255597-3.174296-2.334161-3.589758-2.00568-3.835352-1.936095-4.079922-1.846044-4.601808-1.779529-2.441609-0.765433-2.196015-0.62831-5.299703-1.237177-5.508457-1.168616-5.508457-1.186012-5.997598-0.958838-6.204305-0.261966-6.344498-0.76748-6.27696 0-6.623861 0-6.798846 0-7.113001 0.417509-6.623861 0.611937-7.113001 0.958838-7.077186 0.76748-7.459902 1.046842-7.217379 1.77646-7.04444 1.393743-7.006578 1.987261-7.182586 2.544963-7.043417 2.143826-3.696182 1.237177-3.310396 1.186012-2.091638 0.801249-2.057869 0.418532-2.685155 0-3.173273 0-6.763031 0.48914-3.434216 0.347924-4.408403 0.48914-2.823302-2.544963-3.871167-2.423189-5.230118-2.562359-5.786797-3.174296-3.52222-1.705851-3.660366-1.379417-8.124028-3.310396-4.409426-1.100054-4.620227-1.254573-6.414083-1.218758-4.009314-0.349971-4.253884-0.347924-4.427846-0.48914-5.15951-0.208754-4.950755 0-5.161556 0-10.962679 0-11.906168 0.208754-11.540847 1.186012-5.858428 0.800225-5.647627 0.836041-5.508457 0.836041-5.508457 1.100054-5.107321 1.655709-5.108345 1.168616-4.600785 1.865487-4.359284 1.705851-4.043083 1.954515-3.521197 2.12643-3.521197 2.544963-1.187035 1.254573-1.568728 1.499144-1.183965 1.325182-1.082658 1.49812-0.976234 1.535983-0.76748 1.499144-1.098008 3.241834-0.401136 1.654686-0.487094 1.865487 0 1.708921 0.487094 1.937119 0 1.934049 0.401136 1.935072 0 1.168616 0 2.684132 0.192382 2.074242 0.904603 2.354628 0.76748 2.334161 1.394766 2.824325 1.011027 1.096984 0.837064 1.239224 2.197038 2.684132 1.741667 1.394766 1.64036 0.958838 1.515516 1.236154 2.424212 0.768503 1.916653 1.150196 2.405793 1.255597 2.75474 0.819668 2.752694 0.836041 3.174296 0.681522 3.034103 0.418532 3.589758 0.48607 3.871167 0.279363 1.029446 0.349971 0.207731 0 0.48914 0.417509 0 0.453325-0.696872 0.976234-2.073218 0.976234-5.160533 4.460592-3.452635 2.75474-4.010337 3.520173-4.043083 3.922333-4.218068 5.039783-4.811586 5.647627-1.812275 3.032056-2.405793 3.173273-2.057869 3.66139-1.848091 3.990894-2.509147 3.78214-1.638313 4.358261-1.936095 4.324492-1.934049 4.846378-1.429559 4.600785-1.325182 5.719258-0.418532 0.209778-0.401136 0-0.207731 0.415462-0.48914 0-0.818645-0.415462-0.418532-0.209778-0.557702-0.959861-0.209778-1.168616-0.418532-1.045819-0.731664-1.708921-2.369977-4.218068-1.218758-2.544963-1.937119-2.194992-2.074242-2.685155-2.2656-2.964518-2.405793-2.631944-2.823302-2.543939-2.632967-2.406816-2.87549-1.864464-3.173273-2.004657-3.034103-1.167592-3.589758-0.907673-3.521197-0.331551-0.349971 0-0.487094 0-0.803295 0.331551-0.626263 1.394766-1.046842 0.679475-1.358951 3.311419-0.836041 1.794879-0.907673 2.545986-0.750083 2.684132-0.401136 2.615571-1.115404 5.994528-0.418532 3.523243 0 3.589758 0 7.984858 0.418532 8.611122 0.696872 4.427846 0.818645 4.533246 0.750083 4.897543 1.326205 4.549619 1.49812 5.246491 1.533936 5.090948 2.057869 5.247514 1.935072 5.021364 2.666736 5.107321 2.509147 5.508457 3.034103 5.176906 3.573385 5.579065 3.64297 5.019317 3.799536 5.579065 3.174296 3.870144 4.060479 4.480035 4.27128 4.479011 1.986237 2.128477 2.423189 2.421142 3.502777 3.052522 3.591805 3.084245 5.858428 5.247514 4.426823 3.224438 1.568728 1.168616-0.871857 2.684132-0.696872 3.521197-0.487094 1.934049 0 2.423189 0 2.894933 0 2.613524 0.836041 3.105734 0.871857 3.310396 1.115404 3.435239 1.515516 3.852748 2.004657 4.00829 2.824325 4.010337 0 2.805906 0.278339 2.63399 0.418532 3.573385 1.219781 3.989871 1.11745 4.341888 0.88823 2.00261 1.028423 1.848091 1.325182 2.075265 1.429559 1.515516 0 2.823302 0 3.174296 0 3.939729 0.836041 5.089925 0.836041 5.92699 1.49812 7.113001 2.057869 7.355525 1.533936 4.078899 1.515516 4.41045 1.655709 4.13211 1.986237 4.41045 2.0241 4.828982 2.334161 4.532223 2.615571 4.844332 3.313465 4.811586 1.515516 2.75474 1.64036 2.284019 3.538593 5.107321 3.624551 5.089925 4.14746 5.229095 4.428869 5.124717 4.810562 5.019317 5.022387 5.160533 6.066159 5.579065 3.871167 3.382027 4.688789 3.660366 4.757351 3.241834 5.161556 3.102664 4.950755 2.755764 5.577019 2.263553 5.929036 2.826372 5.89015 1.934049 5.892197 2.004657 6.346545 1.987261 6.344498 1.515516 6.691399 1.237177 6.766101 1.115404 6.658653 0.889253 6.695492 0.907673 7.109931 0.401136 6.762007 0 7.009647 0 7.252171 0 7.007601-0.889253 7.043417-0.837064 7.182586-0.750083 6.658653-1.601474 7.042393-1.50119 6.606465-1.707898 7.235798-1.952468 6.623861-2.334161 6.345522-2.685155 6.762007-2.823302 6.187933-3.105734 5.997598-3.450589 5.875824-3.799536 5.088902-3.505847 2.335185-2.00261 2.474354-1.429559 4.710278-4.009314 3.972475-3.871167 3.941775-3.991917 3.868097-4.408403 3.174296-4.27128 3.764744-4.41045 2.651386-4.743024 2.665713-4.218068 2.842745-4.897543 2.333138-4.27128 3.975545-9.029654 1.951445-4.671393 1.517563-4.359284 1.515516-4.671393 1.359974-4.425799 0.975211-3.784186 1.220804-4.480035 2.162246-7.983835 1.375324-6.971785 0.890276-6.766101 0.766456-5.436826 1.220804-8.263198 0.278339-1.325182 0.975211-1.49812 2.614547-4.288676 1.673106-2.874467 1.50119-3.051499 1.916653-3.224438 1.675152-3.870144 1.079588-3.991917 1.183965-4.339842 0.907673-4.479011 0.418532-2.198062 0.349971-2.685155 0-2.351558-0.349971-2.354628 0-2.892887-0.696872-2.823302-1.255597-5.439896-1.429559-2.752694-1.045819-3.102664 0-0.76748 0.48914-0.957815 1.428535-2.284019 6.206352-9.1678 4.91494-6.869455 2.336208-4.6366 3.172249-5.021364 2.75474-5.508457 3.174296-5.92699 3.171226-6.623861 3.574409-7.514137 2.004657-4.621251 1.848091-4.461615 1.602498-4.774747 1.568728-4.253884 1.186012-4.498454 1.218758-4.199649 1.533936-8.209986 1.220804-8.403391 0.836041-7.42511L739.322867 213.991114z"  horiz-adv-x="1024" />

    
    <glyph glyph-name="weibo" unicode="&#58947;" d="M667.724691 667.927561c44.154639 0 255.473509 11.467169 216.83756-192.390775-5.399987-22.345937-9.459442-56.574506 17.046235-63.815421 24.14798-6.062066 39.011502 19.130709 45.666062 38.305421 3.188622 22.321378 100.936877 314.472228-276.007171 290.179962-12.046361-2.125407-38.785352-12.417821-38.97364-34.56626C632.104425 683.487955 655.741775 669.065478 667.724691 667.927561zM679.594019 579.472973c7.05058 0.826831 116.910687 20.101827 107.916848-95.749738 1.63422-10.524704-5.819542-28.566616 8.992815-32.268938 14.812357-3.703345 20.630876 8.463766 22.218024 19.572778 1.587148 11.109012 27.215852 161.807223-137.365554 144.41818-12.450567-1.37123-20.807908-8.816806-19.396769-19.74981C663.370523 584.762443 672.54344 578.646142 679.594019 579.472973zM726.18515 399.006785c0 0-44.288692-9.56689-23.384593 23.384593 32.961716 64.451918-20.591991 170.193217-159.439292 99.915617-47.831378-25.51-47.831378-7.440459-46.237067 24.447808 4.300956 174.08485-318.347488 49.957809-409.759431-176.334077-51.543933-137.357368 31.003108-256.060887 158.698418-307.833017 311.643809-111.274316 538.583448 72.812329 577.283866 191.860702C874.931916 433.28959 726.18515 399.006785 726.18515 399.006785zM427.294806 103.804437c-147.530055-20.292162-278.3004 44.50154-292.085358 144.721079s94.637404 197.913559 242.166435 218.205721 278.3004-44.50154 292.085358-144.721079S574.824861 124.096599 427.294806 103.804437zM539.748994 312.676581c-11.707646 61.054541-83.562161 98.591459-160.491251 83.839477S249.455445 320.311469 261.163091 259.256928s83.562161-98.591459 160.491251-83.839477S551.45664 251.62204 539.748994 312.676581zM370.101199 231.732038c-26.561959 0-48.095391 18.326391-48.095391 40.932248 0 22.605857 21.533432 40.932248 48.095391 40.932248 26.561959 0 48.095391-18.326391 48.095391-40.932248C418.196591 250.057405 396.663158 231.732038 370.101199 231.732038zM448.895777 286.990572c-9.912767 0-19.995403 11.912307-19.995403 26.605961 0 14.693654 10.082636 26.605961 19.995403 26.605961 9.912767 0 19.995403-11.912307 19.995403-26.605961C468.89118 298.901857 458.808544 286.990572 448.895777 286.990572z"  horiz-adv-x="1024" />

    
    <glyph glyph-name="facebook" unicode="&#59258;" d="M672.00704 704.00384c-88.369433 0-160.00704-71.637607-160.00704-160.00704l0-96.00832-127.99744 0 0-127.99744 127.99744 0 0-447.99104 127.99744 0 0 447.99104 143.992 0 32.0096 127.99744-176.0016 0 0 96.00832c0 17.673887 14.335713 32.0096 32.0096 32.0096l160.00704 0 0 127.99744-160.00704 0z"  horiz-adv-x="1024" />

    
    <glyph glyph-name="weixin" unicode="&#58929;" d="M693.12 548.736c11.776 0 23.36-0.896 35.008-2.176-31.36 146.048-187.456 254.528-365.696 254.528C163.2 801.088 0 665.344 0 492.864c0-99.52 54.272-181.248 145.024-244.736L108.8 139.136l126.72 63.488c45.312-8.896 81.664-18.112 126.912-18.112 11.392 0 22.656 0.512 33.792 1.344-7.04 24.256-11.2 49.6-11.2 76.032C385.088 420.224 521.024 548.736 693.12 548.736zM498.304 646.976c27.392 0 45.376-17.984 45.376-45.248 0-27.136-17.984-45.312-45.376-45.312-27.072 0-54.336 18.176-54.336 45.312C443.968 629.056 471.168 646.976 498.304 646.976zM244.672 556.416c-27.2 0-54.592 18.176-54.592 45.312 0 27.264 27.392 45.248 54.592 45.248S289.92 629.056 289.92 601.728C289.92 574.592 271.872 556.416 244.672 556.416zM1024 266.24c0 144.896-145.024 262.976-307.904 262.976-172.48 0-308.224-118.144-308.224-262.976 0-145.28 135.808-262.976 308.224-262.976 36.096 0 72.512 9.024 108.736 18.112l99.392-54.528-27.264 90.624C969.728 112.128 1024 184.512 1024 266.24zM616.128 311.616c-17.984 0-36.224 17.92-36.224 36.224 0 18.048 18.24 36.224 36.224 36.224 27.52 0 45.376-18.176 45.376-36.224C661.504 329.536 643.648 311.616 616.128 311.616zM815.488 311.616c-17.856 0-36.032 17.92-36.032 36.224 0 18.048 18.112 36.224 36.032 36.224 27.264 0 45.376-18.176 45.376-36.224C860.864 329.536 842.752 311.616 815.488 311.616z"  horiz-adv-x="1024" />

    
    <glyph glyph-name="icon" unicode="&#58896;" d="M684.327322 628.392126c10.295484 0 20.419052-0.780783 30.601972-1.898233C687.515944 754.152365 551.073412 848.97601 395.27095 848.97601c-174.151365 0-316.802296-118.652354-316.802296-269.418103 0-86.992283 47.438429-158.431336 126.767172-213.925231l-31.665187-95.272877 110.765733 55.494918c39.60809-7.776104 71.383794-15.833617 110.935602-15.833617 9.956769 0 19.804045 0.447185 29.538757 1.172709-6.154163 21.204951-9.788947 43.35953-9.788947 66.462714C415.074995 516.062781 533.898241 628.392126 684.327322 628.392126L684.327322 628.392126zM514.039961 714.266959c23.943318 0 39.663348-15.72003 39.663348-39.552831 0-23.717168-15.717983-39.60809-39.663348-39.60809-23.667026 0-47.495734 15.889899-47.495734 39.60809C466.544227 698.602188 490.317677 714.266959 514.039961 714.266959L514.039961 714.266959zM292.337603 635.107061c-23.77652 0-47.721885 15.889899-47.721885 39.60809 0 23.832801 23.944342 39.552831 47.721885 39.552831 23.772426 0 39.552831-15.664771 39.552831-39.552831C331.891458 650.99696 316.111053 635.107061 292.337603 635.107061L292.337603 635.107061zM973.550493 381.462201c0 126.655631-126.766149 229.870388-269.14181 229.870388-150.761656 0-269.419126-103.271038-269.419126-229.870388 0-126.991276 118.712729-229.866295 269.419126-229.866295 31.55467 0 63.383586 7.887644 95.05082 15.8285l86.87665-47.659463-23.832801 79.209016C926.110017 246.755196 973.550493 310.024172 973.550493 381.462201L973.550493 381.462201zM617.027543 421.126572c-15.717983 0-31.66314 15.663748-31.66314 31.665187 0 15.775288 15.945157 31.659047 31.66314 31.659047 24.056905 0 39.665395-15.884782 39.665395-31.659047C656.691915 436.79032 641.083425 421.126572 617.027543 421.126572L617.027543 421.126572zM791.289426 421.126572c-15.608489 0-31.492248 15.663748-31.492248 31.665187 0 15.775288 15.830547 31.659047 31.492248 31.659047 23.832801 0 39.664372-15.884782 39.664372-31.659047C830.952774 436.79032 815.122227 421.126572 791.289426 421.126572L791.289426 421.126572z"  horiz-adv-x="1024" />

    
    <glyph glyph-name="dianzan" unicode="&#58931;" d="M188.672 340.64c14.4 0 25.770667 8.981333 25.770667 23.36s-11.413333 22.613333-25.813333 22.613333c-0.277333 0-0.490667-0.170667-0.746667-0.170667l-62.314667-0.128c-1.429333 0.213333-2.901333 0.298667-4.373333 0.298667-19.626667 0-35.861333-16.085333-35.861333-36.010667l0-441.344c0-19.882667 15.936-35.498667 35.562667-35.498667 1.898667 0 3.797333-0.298667 5.632 0l60.842667 0c0.106667 0 0.149333-0.085333 0.256-0.085333s0.149333 0.085333 0.234667 0.085333l0.746667 0 0 0.128c13.376 0.533333 24.106667 8.384 24.106667 21.866667 0 13.546667-10.730667 21.717333-24.106667 22.250667l0 0.426667L128-81.568l0 422.229333 60.608 0L188.672 340.661333zM927.68 390.666667c-10.069333 11.968-22.613333 14.997333-46.954667 15.658667l-248.469333-0.341333c36.650667 84.928 47.744 194.666667 9.962667 267.477333-17.066667 32.896-54.208 53.589333-87.552 53.184-64.896-0.768-90.453333-47.530667-101.269333-106.24-14.741333-80.021333-92.714667-223.168-197.397333-235.093333l0-511.893333 490.666667 0.021333 8.725333 0.256c19.306667-0.042667 44.544-2.56 62.058667 8.725333 20.672 12.010667 20.885333 33.642667 28.074667 60.565333 0 0 69.888 297.941333 88.896 383.808C941.333333 357.962667 939.178667 376.992 927.68 390.666667zM795.413333-62.56l-0.106667 0.042667c-2.624-6.378667-7.061333-12.010667-13.205333-16-4.288-2.837333-9.002667-4.501333-13.76-5.162667-1.536 0.213333-3.114667 0-4.736 0l-464.938667-0.213333L298.666667 342.666667c56 22.229333 110.314667 72.085333 148.714667 139.648 30.186667 53.098667 37.504 78.954667 48.661333 127.296 14.677333 63.552 34.197333 73.877333 58.624 73.877333 23.104 0 60.672-15.658667 67.989333-106.730667 5.354667-66.752-29.162667-137.344-38.784-172.949333-1.344-4.970667-3.093333-20.992 7.552-30.677333 12.245333-11.114667 36.821333-9.130667 48.576-9.130667l220.010667 0.341333c12.458667 0.661333 25.322667-1.557333 28.330667-20.992C892.202667 318.410667 795.413333-62.56 795.413333-62.56zM266.688-126.645333c0.32-0.042667 0.448-0.042667 0.298667 0.042667 0.234667 0.042667 0.362667 0.042667-0.298667 0.042667-0.661333 0-0.533333 0-0.277333-0.042667C266.282667-126.688 266.389333-126.688 266.688-126.645333z"  horiz-adv-x="1024" />

    
    <glyph glyph-name="logo-wechat" unicode="&#58905;" d="M570.935 384.49c-10.214 0-20.431-9.482-20.431-21.166 0-9.484 10.214-18.967 20.431-18.967 15.332 0 26.277 9.484 26.277 18.967-0.001 11.679-10.945 21.166-26.277 21.166v0 0 0zM503.799 483.015c16.057 0 26.271 10.214 26.271 25.546 0 16.053-10.214 25.541-26.271 25.541-15.328 0-29.925-9.488-29.925-25.541 0-15.336 14.597-25.546 29.925-25.546v0 0 0zM511.826 832.057c-247.386 0-447.935-200.546-447.935-447.93 0-247.389 200.55-447.934 447.935-447.934 247.385 0 447.929 200.546 447.929 447.934 0 247.386-200.541 447.93-447.929 447.93v0 0 0zM427.167 270.637c-27.003 0-46.708 4.379-72.254 11.684l-73.71-37.225 21.171 62.765c-51.817 36.481-82.471 82.463-82.471 138.663 0 99.251 93.416 175.149 207.266 175.149 100.711 0 190.485-59.84 207.999-144.507-7.301 1.47-13.871 2.196-19.706 2.196-99.256 0-175.88-74.44-175.88-164.204 0-15.328 2.187-29.193 5.835-43.795-5.836-0.725-12.41-0.725-18.249-0.725v0 0 0zM731.5 199.119l14.592-52.548-55.464 31.38c-21.163-4.374-41.6-10.945-62.762-10.945-97.795 0-175.154 67.141-175.154 150.338 0 83.198 77.358 150.338 175.154 150.338 92.686 0 175.884-67.141 175.884-150.338 0-46.707-31.381-88.302-72.249-118.225v0 0 0zM359.296 534.102c-15.328 0-31.38-9.488-31.38-25.541 0-15.332 16.053-25.551 31.38-25.551 14.597 0 26.271 10.219 26.271 25.551 0 16.053-11.674 25.541-26.271 25.541v0 0 0zM685.518 384.49c-10.945 0-20.433-9.482-20.433-21.166 0-9.484 9.488-18.967 20.433-18.967 14.596 0 25.545 9.484 25.545 18.967 0 11.679-10.949 21.166-25.545 21.166v0 0 0zM685.518 384.49z"  horiz-adv-x="1025" />

    
    <glyph glyph-name="facebook1" unicode="&#59092;" d="M672 704c-88.352 0-160-71.648-160-160l0-96-128 0 0-128 128 0 0-448 128 0 0 448 144 0 32 128-176 0 0 96c0 17.664 14.336 32 32 32l160 0 0 128-160 0z"  horiz-adv-x="1024" />

    
    <glyph glyph-name="qq" unicode="&#58930;" d="M516.400561 896C233.631202 896 4.423057 666.781472 4.423057 383.996539c0-282.778011 229.209876-511.996539 511.977504-511.996539 282.767628 0 511.977504 229.218528 511.977504 511.996539C1028.378065 666.781472 799.168189 896 516.400561 896L516.400561 896zM798.283924 224.427316c-13.222449-12.345105-35.922629 1.098842-57.743736 31.293648-9.472541-25.565823-21.815916-49.145078-36.142398-70.30861 30.854111-11.019572 50.69384-28.213428 50.69384-47.606699 0-33.499985-59.287307-60.609379-132.46156-60.609379-43.418984 0-81.767719 9.474271-106.011471 24.243752-24.018792-14.76948-62.587295-24.243752-106.00628-24.243752-73.174253 0-132.46156 27.109394-132.46156 60.609379 0 19.173502 19.837999 36.587126 50.69384 47.606699-14.546251 21.158341-26.669857 44.741056-36.147589 70.30861-21.815916-29.969845-44.516096-43.638753-57.743736-31.293648-18.071199 16.967165-11.23415 76.918969 15.648554 133.785362 6.172553 13.00268 12.782912 24.683289 19.61477 34.823787 3.744717 165.302239 112.62183 297.983567 246.182232 297.983567l0.439537 0c133.560402 0 242.437516-132.46156 246.182232-297.983567 6.830128-10.140499 13.447409-21.821107 19.61477-34.823787C809.306957 301.346285 816.362045 241.394481 798.283924 224.427316L798.283924 224.427316zM798.283924 224.427316"  horiz-adv-x="1031" />

    
    <glyph glyph-name="facebookfacebook51" unicode="&#58880;" d="M1024 384c0 282.763636-229.236364 512-512 512C229.236364 896 0 666.763636 0 384s229.236364-512 512-512C794.763636-128 1024 101.236364 1024 384zM46.545455 384C46.545455 641.070545 254.929455 849.454545 512 849.454545c257.070545 0 465.454545-208.384 465.454545-465.454545 0-257.070545-208.384-465.454545-465.454545-465.454545C254.929455-81.454545 46.545455 126.929455 46.545455 384zM531.642182 88.482909 531.642182 384l97.512727 0 15.406545 97.931636-112.919273 0L531.642182 531.037091c0 25.553455 8.378182 49.943273 45.056 49.943273l73.309091 0 0 97.745455-104.075636 0c-87.505455 0-111.383273-57.623273-111.383273-137.495273l0-59.252364-60.043636 0L374.504727 384l60.043636 0 0-295.517091L531.642182 88.482909z"  horiz-adv-x="1024" />

    
    <glyph glyph-name="socialfacebook" unicode="&#59641;" d="M576 512l0 76.2c0 34.4 7.6 51.8 61 51.8L704 640 704 768l-111.8 0c-137 0-182.2-62.8-182.2-170.6L410 512l-90 0 0-128 90 0 0-384 166 0L576 384l112.8 0 15.2 128L576 512z"  horiz-adv-x="1024" />

    
    <glyph glyph-name="qq1" unicode="&#58986;" d="M512 896C229.224296 896 0 666.775704 0 384s229.224296-512 512-512 512 229.224296 512 512S794.775704 896 512 896zM801.261037 227.13837c-21.731556-18.640593-49.948444 61.345185-54.006519 49.038222-9.879704-29.923556-14.506667-49.929481-43.633778-82.507852-1.554963-1.744593 33.659259-14.468741 43.633778-41.642667 9.557333-26.017185 28.141037-67.26163-93.487407-80.213333-71.35763-7.585185-122.936889 38.020741-128.075852 37.584593-9.53837-0.83437-5.290667 0-15.530667 0-8.38163 0-8.931556-0.606815-16.820148 0-2.161778 0.170667-25.884444-37.584593-131.963259-37.584593-82.223407 0-103.518815 51.749926-86.983111 80.213333 16.535704 28.463407 44.126815 36.750222 40.239407 41.263407-19.152593 22.186667-32.350815 45.909333-40.239407 67.356444-1.953185 5.347556-3.584 10.543407-4.873481 15.530667-2.996148 11.45363-25.884444-67.204741-50.460444-49.038222-24.576 18.166519-22.376296 64.417185-6.46637 108.676741 16.042667 44.619852 56.471704 87.589926 56.926815 97.071407 1.611852 35.290074-3.489185 41.14963 0 50.422519 7.755852 20.764444 17.199407 12.8 17.199407 23.570963 0 135.736889 100.864 245.76 225.28 245.76s225.28-110.042074 225.28-245.76c0-5.195852 13.520593 0 19.986963-23.570963 1.327407-4.873481 2.23763-23.665778 0.663704-50.422519-0.739556-12.856889 34.266074-28.501333 52.375704-97.071407C828.434963 267.245037 810.30637 234.894222 801.261037 227.13837z"  horiz-adv-x="1024" />

    
    <glyph glyph-name="facebookfacebook52" unicode="&#58881;" d="M1024 384c0 282.763636-229.236364 512-512 512C229.236364 896 0 666.763636 0 384s229.236364-512 512-512C794.763636-128 1024 101.236364 1024 384zM374.504727 384 374.504727 481.978182l60.043636 0L434.548364 541.230545c0 79.918545 23.877818 137.495273 111.383273 137.495273l104.075636 0 0-97.745455-73.262545 0c-36.724364 0-45.056-24.389818-45.056-49.943273l0-49.058909 112.919273 0L629.201455 384l-97.512727 0 0-295.517091L434.548364 88.482909 434.548364 384 374.504727 384z"  horiz-adv-x="1024" />

    
    <glyph glyph-name="666" unicode="&#58938;" d="M699.638029 372.327146l17.122983 132.780119L610.151949 505.107265l-0.99363 84.776825c0 38.441521-13.164834 64.641229 41.954531 64.641229l70.25611 0.039909L721.36896 773.31582c-12.130272 1.620917-53.832046 5.235235-102.43602 5.235235-101.386108 0-170.747849-61.890582-170.747849-175.531805l0-97.913007L333.517491 505.106242l0-132.780119 114.668623 0 0-340.684216 159.979598 0 0.99363 340.684216L699.638029 372.326123z"  horiz-adv-x="1024" />

    
    <glyph glyph-name="zan" unicode="&#58987;" d="M959.427604 263.807834c0 30.985392-10.654776 54.61597-31.488851 68.346861 12.64023 7.159146 31.265002 42.562143 31.265002 73.827945-1.258347 51.65158-51.232065 89.935824-126.68211 89.935824L632.458289 495.918463c34.257374 93.235786 27.797353 218.96714-15.157923 286.083435-25.866862 40.381621-56.936997 49.442278-78.498178 49.442278-72.597579 0-74.974567-69.94078-74.974567-93.739045 0-79.589638-11.492808-115.859647-25.8119-149.305971-11.353902-21.644925-80.847186-92.844252-151.850645-92.844252L153.107089 495.55491c-51.372769 0-88.621515-43.010439-88.537572-104.226135l34.509003-364.134117c4.166775-56.097966 31.712499-90.074729 86.971633-90.075729 0 0 27.516744-0.223848 48.127969-0.223848 10.514871 0 20.330616 0.083943 26.148271 0.223848 17.031653 0.559221 31.069335 11.465626 43.486716 20.638207 8.781046 6.45982 15.744325 12.080809 22.06444 12.080809 2.823686 0 18.960345-9.256324 38.759721-17.674017 20.190911-8.528418 52.210002-15.60462 82.832839-15.60542l278.280126 0c93.291748 0 138.091974 34.956499 138.091974 93.235786 0 17.225721-3.972107 27.4338-13.535223 40.773156 37.446211 8.976914 70.667887 32.523549 70.667887 73.128819 0 15.07318-7.103184 39.290961-16.807005 45.723 18.317181 4.670234 55.315096 37.334287 55.259134 74.387166L959.427604 263.807834zM258.956723-26.188948c-16.6673-0.53144-76.455763 0-76.848097 0-21.449257 0-40.464765 20.218692-45.303484 47.372881L102.296139 399.720086c0 28.329593 22.791547 59.369947 53.217718 59.369947l0-0.194868 130.653017-0.391535c2.237283 0 4.446385 0.27961 6.655687 0.363554L292.822562-4.206652c-6.040505-4.222737-11.689475-8.305769-15.716344-11.269959-5.537046-4.082832-14.792771-10.319004-18.149295-10.710538L258.956923-26.188948zM869.128227 214.198469c-0.055962 0-5.033787 0-5.062568 0l0.475278-33.781896c4.054051-1.538157 19.016307-6.040505 19.044288-35.403796 0-31.46087-41.332377-44.101099-76.148971-44.101099l0.083943 0-0.587202-32.187777c14.178387-3.160057 19.267936-15.548658 19.240155-35.347834 0-34.620927-28.132926-59.565814-101.205982-59.565814L436.785356-26.189747c-13.786853 0-41.779074 8.025958-57.914934 15.828268-15.213086 7.354813-39.598752 21.113685-48.016245 25.671994L330.854177 464.989833c72.457674 20.078986 132.275117 82.58101 147.376279 111.441043 16.41547 38.172319 24.637296 78.078663 24.637296 165.609517 0 43.486716 15.968174 49.330554 32.970846 49.330554 15.046199 0 38.955388-16.583356 51.036397-35.487739 35.76735-55.845537 44.128881-176.152369-0.363554-266.256078l-7.661605-31.181059 255.405635 0.055962c43.485717-2.376988 87.195282-20.16293 87.195282-52.238982l-0.307591-10.039393c0.140705-0.419516-1.06268-27.797353-15.632401-39.878362-12.220914-10.151317-22.120402-10.48689-22.120402-10.48689l-0.27961-33.250656c0 0 14.737608-1.985454 22.427994-7.27087 11.57755-7.942215 16.834986-22.987415 16.219803-39.430866C921.003656 245.099918 888.84366 214.19767 869.128227 214.198469L869.128227 214.198469z"  horiz-adv-x="1024" />

    
    <glyph glyph-name="tupian1" unicode="&#58910;" d="M932.631245 848.692531 120.919959 848.692531c-23.187046 0-41.983898-18.796134-41.983898-41.984205L78.936061-4.969942c0-23.186022 18.796851-41.982157 41.983898-41.982157l811.712359 0c23.187046 0 41.983898 18.796134 41.983898 41.982157L974.616215 806.708348C974.616269 829.896499 955.819315 848.692531 932.631245 848.692531zM946.625638 9.025843c0-15.458099-12.529869-27.98848-27.988582-27.98848L134.914259-18.962637c-15.458714 0-27.989606 12.531405-27.989606 27.98848l0 783.688819c0 15.458099 12.531917 27.98848 27.989606 27.98848l783.72376 0c15.458714 0 27.988582-12.531405 27.988582-27.98848L946.625638 9.025843 946.625638 9.025843zM337.682739 669.564826c-43.970253 0-79.61559-35.64073-79.61559-79.610163 0-43.96841 35.645338-79.615283 79.61559-79.615283 43.973325 0 79.61856 35.646874 79.61856 79.615283C417.300275 633.924096 381.656064 669.564826 337.682739 669.564826zM329.728205 395.561267c58.227507 0 106.955366-111.955866 153.946522-111.955866 46.989107 0 227.514061 223.911629 279.900365 223.911629 28.21376 0 111.28105-113.653453 181.935104-218.541363l0 46.326095c-70.654054 104.88791-153.721344 218.541363-181.935104 218.541363-52.386304 0-232.911155-223.911629-279.900365-223.911629-46.991155 0-95.718912 111.955866-153.946522 111.955866-34.731418 0-142.55872-94.60777-223.920026-170.957619l0-46.326095C187.170509 300.952576 294.996787 395.561267 329.728205 395.561267z"  horiz-adv-x="1024" />

    
    <glyph glyph-name="xiaolian" unicode="&#59049;" d="M339.66091 449.834404c12.724813 0 25.692149 5.370311 34.68701 14.366196 8.996908 8.995885 14.368242 21.966291 14.368242 34.694173 0 12.721743-5.371334 25.687032-14.367219 34.681894-8.998955 8.998955-21.966291 14.372336-34.688034 14.372336-12.719696 0-25.686009-5.372358-34.68394-14.370289-8.995885-9.001001-14.367219-21.967314-14.367219-34.68394 0-12.723789 5.371334-25.694195 14.368242-34.69622C313.972854 455.205739 326.938144 449.834404 339.66091 449.834404zM684.333974 449.834404c12.723789 0 25.693172 5.371334 34.695197 14.368242 8.992815 8.997931 14.365172 21.968337 14.365172 34.692127 0 12.716626-5.372358 25.682939-14.369266 34.68394-9.001001 8.996908-21.970384 14.370289-34.692127 14.370289-12.718673 0-25.684986-5.372358-34.682917-14.371312-8.998955-8.998955-14.372336-21.964244-14.372336-34.682917 0-12.720719 5.373381-25.691125 14.373359-34.695197C658.646941 455.205739 671.612231 449.834404 684.333974 449.834404zM733.269499 330.071763l-0.568958 0.188288-0.537236 0.26606c-3.370771 1.674129-7.7935 1.674129-11.82942 0-5.082762-2.109034-8.973372-6.52153-10.9504-12.423961-5.889127-17.866926-17.531282-41.206494-29.646204-59.424414-34.580586-51.921533-98.888218-84.173075-167.82938-84.173075-66.470901 0-126.326127 30.902824-173.096337 89.366354l-0.440022 0.603751-0.406253 0.61296c-11.370978 17.141402-23.12365 34.860972-29.181623 58.494229-4.143367 7.899924-11.462053 16.056698-23.336498 12.479219-7.827269-4.27128-16.496719-16.743336-12.713556-29.313629 2.850931-5.680373 5.635347-11.573593 8.577353-17.799388 8.931416-18.897396 18.165732-38.437427 30.589692-54.961776l0.077771-0.104377c44.193525-60.715827 122.70567-99.94734 200.020546-99.94734 78.226642 0 156.122757 39.986713 193.83466 99.501178l0.38067 0.550539c16.369829 21.772886 33.29736 44.287669 38.740326 71.251787l0.216941 1.078565 0.48914 0.986467c1.686409 3.400446 1.677199 7.860015-0.023536 11.927657C743.518934 324.29213 739.127927 328.141808 733.269499 330.071763zM512 834.437899c-244.161882 0-450.437899-206.274994-450.437899-450.437899 0-244.162906 206.274994-450.437899 450.437899-450.437899 244.162906 0 450.437899 206.274994 450.437899 450.437899C962.437899 628.162906 756.162906 834.437899 512 834.437899zM799.323914 96.676086c-76.532047-76.532047-178.573071-118.681006-287.324938-118.681006s-210.790844 42.147936-287.321868 118.681006c-76.531024 76.532047-118.677936 178.573071-118.677936 287.324938 0 108.751866 42.146912 210.791867 118.677936 287.324938C301.209156 747.856985 403.248134 790.005944 512 790.005944s210.791867-42.147936 287.324938-118.681006 118.681006-178.573071 118.681006-287.324938S875.856985 173.208133 799.323914 96.676086z"  horiz-adv-x="1024" />

    
    <glyph glyph-name="weixin1" unicode="&#58956;" d="M512.73678-72.402751c-246.990301 0-447.905216 200.953801-447.905216 447.911356 0 246.943228 200.914916 447.898053 447.905216 447.898053 246.947322 0 447.904193-200.953801 447.904193-447.898053C960.640973 128.550027 759.684102-72.402751 512.73678-72.402751zM512.73678 806.167019c-237.487879 0-430.665577-193.171558-430.665577-430.658414s193.177698-430.658414 430.665577-430.658414c237.4449 0 430.664553 193.171558 430.664553 430.658414S750.180658 806.167019 512.73678 806.167019zM615.259782 441.373709c7.009647 0 13.96199-0.534166 20.772093-1.310855-18.720364 87.122243-111.826901 151.754263-217.995943 151.754263-118.79357 0-216.116129-80.980359-216.116129-183.831842 0-59.268872 32.413224-108.029412 86.48063-145.877415l-21.598924-64.989153 75.53944 37.912471c26.998911-5.342682 48.654117-10.849092 75.696006-10.849092 6.752798 0 13.477966 0.314155 20.117177 0.854461-4.188392 14.46034-6.639211 29.570479-6.639211 45.25674C431.512874 364.731144 512.564865 441.373709 615.259782 441.373709zM499.101225 499.943662c16.213263 0 27.027563-10.671037 27.027563-26.948769 0-16.2061-10.813277-27.055193-27.027563-27.055193-16.22759 0-32.483832 10.849092-32.483832 27.055193C466.618417 489.272625 482.873636 499.943662 499.101225 499.943662zM347.824847 445.939701c-16.213263 0-32.598442 10.849092-32.598442 27.055193 0 16.276708 16.384156 26.948769 32.598442 26.948769 16.184611 0 26.912953-10.671037 26.912953-26.948769C374.7378 456.788793 364.009458 445.939701 347.824847 445.939701zM812.484655 272.899646c0 86.424348-86.424348 156.841118-183.504384 156.841118-102.850459 0-183.874821-70.416769-183.874821-156.841118 0-86.573751 81.023338-156.798139 183.874821-156.798139 21.512966 0 43.169195 5.385661 64.796772 10.813277l59.311851-32.483832-16.299221 54.011124C780.214694 180.984237 812.484655 224.181061 812.484655 272.899646zM569.33994 299.955862c-10.770298 0-21.626553 10.714016-21.626553 21.606087 0 10.79281 10.856255 21.609157 21.626553 21.609157 16.3422 0 27.04189-10.81737 27.04189-21.609157C596.381829 310.668855 585.68214 299.955862 569.33994 299.955862zM688.205141 299.955862c-10.685363 0-21.456684 10.714016-21.456684 21.606087 0 10.79281 10.770298 21.609157 21.456684 21.609157 16.22759 0 27.083845-10.81737 27.083845-21.609157C715.290009 310.668855 704.432731 299.955862 688.205141 299.955862z"  horiz-adv-x="1024" />

    
    <glyph glyph-name="weibo1" unicode="&#58941;" d="M905.21 689.1c-87.592 84.119-216.174 72.357-216.174 72.357-15.81-0.319-28.629-13.41-28.629-29.36v-14.213c0-15.897 12.76-28.042 29.035-27.763 0 0 123.395 13.097 175.956-63.519 52.553-76.616 29.847-172.755 29.847-172.755-2.412-15.693 8.479-28.418 24.542-28.418h12.26c15.967 0 30.73 12.684 32.45 28.524 0.002-0 28.304 151.031-59.287 235.147v0zM803.346 459.404h17.373c10.605 0 20.884 8.31 22.597 18.989 0 0 20.475 79.684-27.297 123.359-47.777 43.677-110.211 27.745-110.211 27.745-10.471-1.598-18.97-11.529-18.97-22.085v-7.495c0-10.605 8.483-18.558 19.437-18.239 0 0 52.404 7.129 77.892-23.602 25.484-30.738 5.532-80.445 5.532-80.445-3.063-10.069 3.185-18.227 13.648-18.227v0zM395.21 380.82c-86.012-16.718-144.266-89.281-130.117-162.080 14.153-72.793 95.348-118.253 181.354-101.536 86.010 16.723 144.277 89.289 130.124 162.087-14.149 72.792-95.343 118.252-181.361 101.529v0zM388.155 189.372c-26.471-12.341-55.552-6.008-64.953 14.153-9.402 20.169 4.434 46.518 30.905 58.86 26.472 12.348 55.555 6.008 64.961-14.153 9.389-20.168-4.434-46.518-30.912-58.86v0zM448.857 250.631c-14.594 0-26.432 12.024-26.432 26.855 0 14.83 11.836 26.858 26.432 26.858 14.615 0 26.453-12.029 26.453-26.858-0.001-14.833-11.841-26.855-26.453-26.855v0zM715.68 410.87c0 8.087 76.927 80.879 0 126.177-76.929 45.293-217.655-23.571-213.438-16.175 60.525 105.731-25.965 139.111-70.062 139.111-105.133 0-379.945-234.182-379.945-382.497 0-148.316 183.496-268.555 409.844-268.555 226.353 0 408.097 120.241 408.097 268.555 0.001 125.297-154.496 125.297-154.496 133.384v0zM473.15 91.2c-144.601-20.324-272.714 40.593-286.132 136.056-13.418 95.47 92.936 189.337 237.544 209.661 144.626 20.324 272.721-40.59 286.144-136.061 13.422-95.464-92.932-189.33-237.556-209.656v0z"  horiz-adv-x="1024" />

    
    <glyph glyph-name="weixin-copy" unicode="&#58962;" d="M571.648 384.060c-10.257 0-20.517-9.525-20.517-21.25 0-9.527 10.255-19.053 20.517-19.053 15.393 0 26.385 9.527 26.385 19.053 0 11.724-10.99 21.25-26.385 21.25v0zM504.225 483c16.123 0 26.385 10.257 26.385 25.651 0 16.123-10.261 25.649-26.385 25.649-15.39 0-30.048-9.527-30.048-25.649-0.001-15.396 14.659-25.651 30.048-25.651v0zM512.287 833.508c-248.427 0-449.813-201.386-449.813-449.813 0-248.425 201.386-449.812 449.813-449.812 248.425 0 449.812 201.386 449.812 449.812 0.001 248.427-201.385 449.813-449.812 449.813v0zM427.275 269.735c-27.119 0-46.906 4.394-72.556 11.725l-74.019-37.38 21.257 63.031c-52.035 36.64-82.818 82.811-82.818 139.243 0 99.67 93.808 175.889 208.137 175.889 101.135 0 191.279-60.097 208.867-145.113-7.328 1.469-13.926 2.199-19.788 2.199-99.67 0-176.619-74.75-176.619-164.894 0-15.388 2.199-29.313 5.863-43.972-5.863-0.728-12.461-0.728-18.324-0.728v0zM732.882 197.915l14.655-52.77-55.697 31.512c-21.252-4.394-41.773-10.99-63.025-10.99-98.206 0-175.889 67.422-175.889 150.968 0 83.547 77.685 150.97 175.889 150.97 93.072 0 176.619-67.423 176.619-150.97 0-46.9-31.512-88.673-72.552-118.721v0zM359.117 534.3c-15.39 0-31.512-9.527-31.512-25.649 0-15.395 16.122-25.656 31.512-25.656 14.66 0 26.385 10.261 26.385 25.656 0 16.122-11.725 25.649-26.385 25.649v0zM686.712 384.060c-10.995 0-20.522-9.525-20.522-21.25 0-9.527 9.527-19.053 20.522-19.053 14.655 0 25.649 9.527 25.649 19.053 0 11.724-10.994 21.25-25.649 21.25v0zM686.712 384.060z"  horiz-adv-x="1024" />

    
    <glyph glyph-name="weibo-copy" unicode="&#58970;" d="M399.84 280.064c-22.816 0-43.808-18.784-44.161-39.488-0.288-17.664 14.56-31.105 34.464-31.105 23.681-0.032 43.488 17.793 43.647 39.232 0.16 18.272-14.112 31.361-33.952 31.361zM456.608 295.807c-6.783-3.328-13.312-8.224-17.984-14.144-0.992-1.28 5.952-8.833 11.584-16.928 7.232 7.936 13.76 12.512 16.16 18.688 1.056 2.656-8.64 12.96-9.76 12.384zM599.904 385.568c-11.008 6.88-22.848 12.64-34.943 17.535-40.48 16.192-82.944 20.992-126.112 17.216-65.28-5.664-125.567-24.896-172.448-73.312-54.368-56.096-47.008-127.103 16.992-171.616 43.328-30.081 92.512-40.416 144.48-39.168 9.44 0 18.912-0.736 28.289 0.129 59.168 5.664 113.664 23.616 158.816 63.648 65.984 58.4 59.36 138.816-15.072 185.568zM526.688 220.672c-22.464-34.048-62.24-54.72-105.44-54.944-54.464-0.352-95.328 30.24-102.56 77.824-1.6 9.728-1.153 20.416 1.056 29.952 10.976 46.688 43.296 72.768 87.296 84.544 43.456 11.52 83.872 4 115.488-30.528 26.176-28.576 27.232-72.128 4.16-106.848zM512.032 896c-282.784 0-512.032-229.247-512.032-512s229.247-512 512-512c282.751 0 512 229.247 512 512 0 282.751-229.216 512-511.968 512zM756.192 231.136c-43.744-67.296-110.944-100.672-186.016-119.072-36.32-8.96-74.24-11.712-93.952-14.721-93.088 2.304-165.088 16.064-230.015 56.416-81.824 50.848-105.664 127.040-62.88 213.44 45.951 92.672 117.44 161.216 211.264 205.28 17.408 8.16 37.216 12.8 56.32 15.168 39.36 4.896 62.335-17.44 61.344-57.056-0.224-8.672-2.177-17.216-2.687-25.952-0.383-7.456 0.16-15.040 0.352-22.528 7.648 1.248 15.36 2.048 22.848 3.713 30.337 6.496 60.352 17.344 90.912 18.976 53.056 2.816 76.832-29.313 60.704-79.712-6.944-21.472-1.76-28.704 18.305-35.904 75.456-27.2 97.184-90.912 53.504-158.048zM716.608 513.665c-12.48 15.872-40.8 19.552-49.76 19.648-13.248 0.096-23.935 10.944-23.808 24.16 0.096 13.185 10.816 23.776 23.935 23.776h0.192c5.856 0 58.368-1.504 87.104-37.92 11.393-14.432 23.072-40.096 13.824-80.032-2.56-11.137-12.448-18.624-23.36-18.624-1.76 0-3.552 0.224-5.376 0.672-12.929 2.976-20.96 15.872-17.984 28.736 4.032 17.472 2.464 30.432-4.768 39.584zM857.696 435.2c-1.888-11.776-12.032-20.288-23.681-20.288-1.184 0-2.496 0.16-3.744 0.352-13.056 2.016-21.984 14.304-19.968 27.392 8.896 56.608-0.16 100.64-27.040 130.72-46.784 52.416-132.544 49.312-133.408 49.312-13.376-0.544-24.447 9.696-25.024 22.88-0.544 13.216 9.76 24.416 22.944 25.024 4.448 0.16 109.441 3.84 171.264-65.248 36.864-41.376 49.856-98.624 38.656-170.144z"  horiz-adv-x="1024" />

    
    <glyph glyph-name="weixin-copy1" unicode="&#58971;" d="M579.867 384.068c-11.67 0-23.344-10.837-23.344-24.178 0-10.839 11.668-21.678 23.344-21.678 17.514 0 30.020 10.839 30.020 21.678 0 13.34-12.505 24.178-30.020 24.178v0zM503.154 496.64c18.345 0 30.020 11.67 30.020 29.185 0 18.345-11.675 29.183-30.020 29.183-17.51 0-34.188-10.839-34.188-29.183-0.001-17.517 16.678-29.185 34.188-29.185v0zM512.326 895.44c-282.655 0-511.788-229.133-511.788-511.788 0-282.653 229.133-511.786 511.788-511.786 282.653 0 511.786 229.133 511.786 511.786 0.001 282.655-229.132 511.788-511.786 511.788v0zM415.602 253.991c-30.855 0-53.369 4.999-82.553 13.341l-84.218-42.53 24.186 71.715c-59.204 41.689-94.228 94.221-94.228 158.428 0 113.403 106.733 200.123 236.814 200.123 115.069 0 217.633-68.377 237.644-165.106-8.338 1.671-15.844 2.502-22.514 2.502-113.403 0-200.954-85.049-200.954-187.613 0-17.508 2.502-33.351 6.671-50.030-6.671-0.829-14.178-0.829-20.849-0.829v0zM763.314 172.276l16.674-60.041-63.371 35.854c-24.18-4.999-47.529-12.505-71.709-12.505-111.737 0-200.123 76.711-200.123 171.769 0 95.058 88.388 171.771 200.123 171.771 105.895 0 200.954-76.713 200.954-171.771 0-53.362-35.854-100.891-82.548-135.078v0zM338.053 555.008c-17.51 0-35.854-10.839-35.854-29.183 0-17.516 18.343-29.19 35.854-29.19 16.679 0 30.020 11.675 30.020 29.19 0 18.343-13.341 29.183-30.020 29.183v0zM710.783 384.068c-12.51 0-23.349-10.837-23.349-24.178 0-10.839 10.839-21.678 23.349-21.678 16.674 0 29.183 10.839 29.183 21.678 0 13.34-12.509 24.178-29.183 24.178v0zM710.783 384.068z"  horiz-adv-x="1024" />

    
    <glyph glyph-name="weibo2" unicode="&#59058;" d="M411.270737 288.350316c-17.973895 7.504842-41.189053-0.229053-52.264421-17.542737-11.223579-17.394526-5.955368-38.103579 11.870316-46.201263 18.108632-8.232421 42.132211-0.417684 53.342316 17.421474C435.253895 260.055579 429.446737 280.629895 411.270737 288.350316zM455.545263 306.647579c-6.885053 2.721684-15.508211-0.579368-19.550316-7.329684-3.920842-6.790737-1.751579-14.524632 5.146947-17.367579 7.019789-2.883368 16.006737 0.458105 20.048842 7.370105C465.071158 296.259368 462.551579 304.087579 455.545263 306.647579zM427.52 426.684632c-115.968-11.439158-203.924211-82.216421-196.378947-158.073263 7.531789-75.910737 107.654737-128.161684 223.649684-116.749474 115.994947 11.439158 203.924211 82.216421 196.392421 158.140632C643.664842 385.859368 543.541895 438.110316 427.52 426.684632zM529.300211 247.700211c-23.673263-53.355789-91.769263-81.798737-149.530947-63.232-55.754105 17.933474-79.373474 72.811789-54.945684 122.246737 23.956211 48.464842 86.352842 75.870316 141.541053 61.561263C523.506526 353.562947 552.663579 299.856842 529.300211 247.700211zM512 896C229.241263 896 0 666.772211 0 384c0-282.758737 229.241263-512 512-512 282.772211 0 512 229.241263 512 512C1024 666.772211 794.772211 896 512 896zM455.531789 101.025684c-145.354105 0-293.941895 70.197895-293.941895 185.667368 0 60.362105 38.386526 130.182737 104.474947 196.069053 88.252632 87.929263 191.164632 127.986526 229.874526 89.397895 17.084632-17.003789 18.741895-46.457263 7.760842-81.623579-5.726316-17.690947 16.666947-7.895579 16.666947-7.936 71.343158 29.763368 133.564632 31.514947 156.321684-0.862316 12.139789-17.246316 10.954105-41.472-0.215579-69.510737-5.173895-12.921263 1.589895-14.928842 11.466105-17.879579 40.178526-12.422737 84.924632-42.455579 84.924632-95.380211C772.837053 211.361684 646.090105 101.025684 455.531789 101.025684zM718.672842 468.197053c4.715789 14.457263 1.765053 30.962526-9.202526 43.061895-10.954105 12.072421-27.136 16.666947-42.037895 13.527579l0 0.026947c-12.463158-2.694737-24.724211 5.268211-27.392 17.664-2.667789 12.463158 5.281684 24.697263 17.744842 27.338105 30.531368 6.467368 63.595789-2.937263 85.989053-27.715368 22.447158-24.764632 28.456421-58.489263 18.849684-88.064-3.907368-12.099368-16.936421-18.728421-29.062737-14.848-12.139789 3.920842-18.782316 16.922947-14.874947 28.995368L718.672842 468.183579zM853.261474 424.865684c-0.013474-0.013474-0.013474-0.080842-0.013474-0.107789-4.567579-14.026105-19.712-21.706105-33.778526-17.165474-14.133895 4.554105-21.854316 19.590737-17.300211 33.670737l0 0.013474c13.999158 43.169684 5.12 92.429474-27.567158 128.565895-32.714105 36.122947-80.949895 49.92-125.507368 40.488421-14.484211-3.085474-28.752842 6.130526-31.838316 20.574316-3.098947 14.403368 6.144 28.631579 20.641684 31.717053l0.026947 0c62.625684 13.271579 130.519579-6.117053 176.545684-56.966737C860.483368 554.886737 872.892632 485.618526 853.261474 424.865684z"  horiz-adv-x="1024" />

    
    <glyph glyph-name="weixin2" unicode="&#58988;" d="M809.092 611.667c10.732 0 24.145 0 34.877-2.682-32.195 147.556-187.798 257.551-370.23 257.551-201.213 0-364.865-136.824-364.865-311.208 0-101.947 53.656-182.432 147.556-246.819l-37.559-109.996 128.776 64.387c45.608-10.732 80.485-18.78 126.093-18.78 13.414 0 24.145 0 34.877 0-5.365 24.145-10.732 50.974-10.732 77.802 0 160.97 136.824 289.746 311.208 289.746zM613.246 710.933c26.828 0 45.608-18.78 45.608-45.608s-18.78-45.608-45.608-45.608c-29.512 0-56.34 18.78-56.34 45.608 0 26.828 26.828 45.608 56.34 45.608zM355.694 619.716c-26.828 0-53.656 18.78-53.656 45.608s26.828 45.608 53.656 45.608c26.828 0 45.608-18.78 45.608-45.608 0-26.828-18.78-45.608-45.608-45.608zM1144.446 327.288c0 144.873-147.556 265.6-311.208 265.6-174.383 0-311.208-120.727-311.208-265.6 0-147.556 136.824-265.6 311.208-265.6 34.877 0 72.437 8.049 109.996 16.097l99.265-53.656-26.828 91.217c72.437 56.34 128.776 128.776 128.776 211.943zM731.292 372.895c-18.78 0-37.559 16.097-37.559 34.877s18.78 37.559 37.559 37.559c26.828 0 45.608-18.78 45.608-37.559 0-18.78-18.78-34.877-45.608-34.877zM932.503 372.895c-18.781 0-34.877 16.097-34.877 34.877s16.097 37.559 34.877 37.559c26.828 0 45.608-18.78 45.608-37.559 0-18.78-18.781-34.877-45.608-34.877z"  horiz-adv-x="1257" />

    
    <glyph glyph-name="xiajiantou" unicode="&#58946;" d="M133.404444 546.891852l365.131852-352.616296c1.232593-1.137778 2.56-2.085926 3.982222-2.939259 7.205926-4.361481 16.592593-3.508148 22.945185 2.56l365.131852 352.616296c7.68 7.395556 7.774815 19.816296 0 27.306667-7.395556 7.205926-19.342222 6.826667-26.737778-0.379259l-351.762963-339.626667c0 0 0 0-0.094815 0L160.047407 573.819259c-7.395556 7.205926-19.342222 7.49037-26.737778 0.379259C125.62963 566.708148 125.724444 554.287407 133.404444 546.891852z"  horiz-adv-x="1024" />

    
    <glyph glyph-name="weibo3" unicode="&#58942;" d="M757.142721 394.599406c-39.591717 7.653307-20.312628 28.559453-20.312628 28.559453s38.734186 63.074547-7.748475 108.983133c-57.487296 56.781214-197.431581-7.147794-197.431581-7.147794-53.370535-16.314571-39.249933 7.482415-31.680537 47.948035 0 47.772027-16.524348 128.522142-158.877497 80.923054C198.914864 605.750453 76.868203 437.612035 76.868203 437.612035-7.990486 325.91714 3.20039 239.552144 3.20039 239.552144c21.168112-190.756555 226.526223-243.119133 386.265344-255.530814 168.005388-12.925381 394.875442 57.126069 463.552591 201.294562C921.87353 329.658348 796.904307 386.778276 757.142721 394.599406L757.142721 394.599406 757.142721 394.599406zM401.854902 37.745928c-166.79891-7.649214-301.746392 74.803683-301.746392 184.631044 0 110.0003 134.947482 198.066031 301.746392 205.720362 166.972872 7.648191 302.098409-60.3546 302.098409-170.011068C703.952288 148.42468 568.827775 45.22732 401.854902 37.745928L401.854902 37.745928 401.854902 37.745928zM368.636337 355.83452C200.803887 336.456171 220.253868 181.402769 220.253868 181.402769s-1.718131-49.133024 44.930305-74.125231c98.114598-52.534494 199.326744-20.739347 250.279207 44.37465C566.587758 216.595292 536.642748 375.051187 368.636337 355.83452L368.636337 355.83452 368.636337 355.83452zM326.291926 138.051425c-31.329543-3.568269-56.631812 14.286378-56.631812 40.127929 0 25.669636 22.372543 52.702316 53.702086 55.930847 35.980469 3.400446 59.387575-17.003256 59.387575-43.012629C382.923738 165.421796 357.447507 141.620717 326.291926 138.051425L326.291926 138.051425 326.291926 138.051425zM425.268148 221.186867c-10.673084-7.816013-23.750937-6.79987-29.265534 2.716878-5.847172 9.188266-3.613294 23.810289 7.059789 31.456433 12.394285 9.184173 25.303292 6.459109 30.981618-2.717901C439.558619 243.461173 435.596378 229.352851 425.268148 221.186867L425.268148 221.186867 425.268148 221.186867zM838.903863 461.752852c13.596669 0 24.959461 9.862625 27.027563 22.780843 0.171915 1.023306 0.336668 1.871627 0.336668 2.894933 20.48966 181.740204-150.95506 150.455687-150.95506 150.455687-15.146978 0-27.370371-12.06785-27.370371-27.370371 0-14.963807 12.223393-27.031657 27.370371-27.031657 123.07406 26.864858 96.051613-94.691639 96.051613-94.691639C811.194778 473.826841 823.585993 461.752852 838.903863 461.752852L838.903863 461.752852 838.903863 461.752852zM818.939159 778.997216c-59.214636 13.769608-120.323413 1.868557-137.364531-1.354857-1.379417-0.172939-2.579755-1.36816-3.78521-1.533936-0.51677-0.172939-1.033539-0.677429-1.033539-0.677429-16.865109-4.764514-29.089525-20.060895-29.089525-38.255279 0-21.589714 17.724687-39.438221 39.932478-39.438221 0 0 21.516036 2.888793 36.152385 8.498558 14.452153 5.77554 137.355321 4.246721 198.287065-96.737228 33.232892-73.785493 14.637372-123.091456 12.229532-131.079384 0 0-7.92039-19.215644-7.92039-38.08234 0-21.762653 17.73185-35.536354 39.932478-35.536354 18.421558 0 33.913391 2.550079 38.388309 33.32192l0.171915 0C1070.594713 653.527596 924.969031 754.684484 818.939159 778.997216L818.939159 778.997216 818.939159 778.997216z"  horiz-adv-x="1024" />

    
    <glyph glyph-name="weixin3" unicode="&#58959;" d="M499.057025 548.04468c27.691946 0 45.751911 18.661964 45.751911 45.751911 0 27.089947-18.661964 45.751911-45.751911 45.751911-26.487948 0-54.781893-17.457966-54.781893-45.751911C444.275132 566.104644 472.569077 548.04468 499.057025 548.04468zM299.795414 594.398589c0 27.089947-18.661964 45.751911-45.751911 45.751911-26.487948 0-54.781893-17.457966-54.781893-45.751911 0-28.293945 28.293945-45.751911 54.781893-45.751911C281.73545 548.04468 299.795414 566.706643 299.795414 594.398589zM1024 270.523222c0 67.423868-30.099941 132.439741-84.279835 183.007643-53.577895 49.965902-125.215755 80.667842-201.067607 87.28983 0 1.203998 0 2.407995 0 3.611993-31.905938 148.091711-190.833627 260.063492-370.229277 260.063492C164.947678 804.496179 0 663.026455 0 489.048795 0 396.340976 46.955908 312.061141 136.653733 246.443269l-30.70194-92.707819c-2.407995-7.223986 0-14.447972 5.417989-19.263962 5.417989-4.815991 13.845973-5.417989 19.865961-2.407995l116.787772 58.393886 13.845973-3.009994 0.601999 0c36.119929-7.223986 67.423868-13.845973 105.951793-13.845973 7.223986 0 34.915932 2.407995 43.945914 6.621987 44.547913-108.359788 163.74368-181.201646 297.387419-181.201646 33.711934 0 68.025867 7.825985 102.3398 16.253968l89.697825-48.761905c2.407995-1.203998 5.417989-2.407995 8.427984-2.407995 4.213992 0 8.427984 1.203998 11.437978 4.213992 6.019988 4.815991 7.825985 12.039976 6.019988 19.263962l-22.875955 75.249853C981.258083 123.635509 1024 197.681364 1024 270.523222zM864.470312 92.33157c-6.019988-4.213992-8.427984-12.039976-6.019988-18.661964l12.641975-42.741917-54.179894 29.497942c-2.407995 1.203998-5.417989 2.407995-8.427984 2.407995-1.203998 0-3.009994 0-4.213992-0.601999-31.303939-7.825985-63.811875-16.253968-95.717813-16.253968-146.285714 0-265.481481 100.533804-265.481481 223.943563 0 123.409759 119.195767 223.943563 265.481481 223.943563 143.877719 0 264.879483-102.3398 264.879483-223.943563C974.034098 208.517343 935.506173 145.307466 864.470312 92.33157zM181.803645 255.473251c2.407995 7.223986 0 15.049971-6.621987 19.865961C90.901822 334.335097 48.159906 405.972957 48.159906 488.446796 48.159906 637.140506 191.435626 758.142269 367.821282 758.142269c154.111699 0 291.96943-93.911817 322.069371-218.525573-164.345679-3.611993-297.387419-120.399765-297.387419-261.869489 0-18.661964 2.407995-37.925926 7.825985-57.189888-0.601999 0-1.805996 0-2.407995 0-9.631981-0.601999-19.865961-1.203998-30.099941-1.203998-34.313933 0-63.811875 6.019988-95.717813 12.641975l-19.263962 3.611993c-3.611993 0.601999-7.825985 0-11.437978-1.203998l-80.065844-40.333921L181.803645 255.473251zM612.834803 386.106996c-18.661964 0-37.323927-18.661964-37.323927-37.323927 0-18.661964 18.661964-37.323927 37.323927-37.323927 28.293945 0 45.751911 19.263962 45.751911 37.323927C658.586714 366.843034 641.128748 386.106996 612.834803 386.106996zM804.872428 386.106996c-18.661964 0-36.721928-18.661964-36.721928-37.323927 0-18.661964 18.059965-37.323927 36.721928-37.323927 28.293945 0 45.751911 19.263962 45.751911 37.323927C850.624339 366.843034 833.166373 386.106996 804.872428 386.106996z"  horiz-adv-x="1024" />

    
    <glyph glyph-name="socialfacebook1" unicode="&#59527;" d="M576 512l0 76.2c0 34.4 7.6 51.8 61 51.8L704 640 704 768l-111.8 0c-137 0-182.2-62.8-182.2-170.6L410 512l-90 0 0-128 90 0 0-384 166 0L576 384l112.8 0 15.2 128L576 512z"  horiz-adv-x="1024" />

    
    <glyph glyph-name="facebookfacebook521" unicode="&#58887;" d="M1024 384c0 282.763636-229.236364 512-512 512C229.236364 896 0 666.763636 0 384s229.236364-512 512-512C794.763636-128 1024 101.236364 1024 384zM374.504727 384 374.504727 481.978182l60.043636 0L434.548364 541.230545c0 79.918545 23.877818 137.495273 111.383273 137.495273l104.075636 0 0-97.745455-73.262545 0c-36.724364 0-45.056-24.389818-45.056-49.943273l0-49.058909 112.919273 0L629.201455 384l-97.512727 0 0-295.517091L434.548364 88.482909 434.548364 384 374.504727 384z"  horiz-adv-x="1024" />

    
    <glyph glyph-name="shoucangjiatianchong" unicode="&#58909;" d="M789.866007-61.64371 511.357875 68.037838 232.825185-61.64371l38.192857 303.007105L60.669266 464.192414l302.155714 57.648978L511.357875 789.15353l148.531871-267.311115 302.132178-57.648978L751.694639 241.363396 789.866007-61.64371zM72.824097 460.260871l204.64896-216.791511-0.181125-1.436722-36.985356-293.421796 271.051299 126.20026 271.02674-126.20026-37.143968 294.859541 0.994654 1.054005 203.632817 215.736483-293.949822 56.088436L511.357875 776.511605 366.797455 516.349307l-1.411139-0.26913L72.824097 460.260871zM511.825526 791.738401l149.058874-268.254603 303.142182-57.844429L752.998331 242.066407l38.302351-304.062134L511.825526 68.144262 232.327858-61.995727l38.325887 304.062134L59.598888 465.639369l303.168788 57.844429L511.825526 791.738401M791.923876-62.850188 511.825526 67.579397 231.703641-62.850188l0.115634 0.917906 38.295188 303.821657L58.585815 465.966826l303.850309 57.974389L511.825526 792.791383l0.448208-0.805342 148.942217-268.044826 303.823704-57.974389-0.64059-0.679475L753.535567 241.890398 791.923876-62.850188zM60.611961 465.311911l210.579019-223.069495-0.029676-0.239454-38.20923-303.143205 278.874475 129.850393 0.215918-0.101307 278.635021-129.749086-38.216393 303.383682 0.165776 0.174985 210.388684 222.89451-302.46066 57.71447-0.116657 0.209778L511.825526 790.685419 363.099227 523.02638l-0.234337-0.045025L60.611961 465.311911z"  horiz-adv-x="1024" />

    
    <glyph glyph-name="facebookfacebook522" unicode="&#58882;" d="M1024 384c0 282.763636-229.236364 512-512 512C229.236364 896 0 666.763636 0 384s229.236364-512 512-512C794.763636-128 1024 101.236364 1024 384zM374.504727 384 374.504727 481.978182l60.043636 0L434.548364 541.230545c0 79.918545 23.877818 137.495273 111.383273 137.495273l104.075636 0 0-97.745455-73.262545 0c-36.724364 0-45.056-24.389818-45.056-49.943273l0-49.058909 112.919273 0L629.201455 384l-97.512727 0 0-295.517091L434.548364 88.482909 434.548364 384 374.504727 384z"  horiz-adv-x="1024" />

    
    <glyph glyph-name="facebookfacebook511" unicode="&#58890;" d="M1024 384c0 282.763636-229.236364 512-512 512C229.236364 896 0 666.763636 0 384s229.236364-512 512-512C794.763636-128 1024 101.236364 1024 384zM46.545455 384C46.545455 641.070545 254.929455 849.454545 512 849.454545c257.070545 0 465.454545-208.384 465.454545-465.454545 0-257.070545-208.384-465.454545-465.454545-465.454545C254.929455-81.454545 46.545455 126.929455 46.545455 384zM531.642182 88.482909 531.642182 384l97.512727 0 15.406545 97.931636-112.919273 0L531.642182 531.037091c0 25.553455 8.378182 49.943273 45.056 49.943273l73.309091 0 0 97.745455-104.075636 0c-87.505455 0-111.383273-57.623273-111.383273-137.495273l0-59.252364-60.043636 0L374.504727 384l60.043636 0 0-295.517091L531.642182 88.482909z"  horiz-adv-x="1024" />

    
    <glyph glyph-name="xiaolian1" unicode="&#58911;" d="M511.8639 0.489396c-211.94104 0-383.748011 171.816181-383.748011 383.751081 0 211.93797 171.805948 383.748011 383.748011 383.748011 211.93797 0 383.751081-171.810041 383.751081-383.748011C895.614981 172.304554 723.80187 0.489396 511.8639 0.489396zM511.877203 731.434967c-191.752232 0-347.199607-155.451468-347.199607-347.20063 0-191.759395 155.447375-347.208816 347.199607-347.208816s347.201653 155.449421 347.201653 347.208816C859.078857 575.983499 703.629435 731.434967 511.877203 731.434967zM658.063657 402.506493c-30.274514 0-54.81749 24.542976-54.81749 54.819536 0 30.27963 24.542976 54.82363 54.81749 54.82363 30.27963 0 54.824653-24.542976 54.824653-54.82363C712.88831 427.050492 688.343287 402.506493 658.063657 402.506493zM365.68461 402.506493c-30.275537 0-54.821583 24.542976-54.821583 54.819536 0 30.27963 24.545022 54.82363 54.821583 54.82363 30.277584 0 54.821583-24.542976 54.821583-54.82363C420.506193 427.050492 395.962194 402.506493 365.68461 402.506493zM509.707794 193.258795c-57.472969 0-117.278053 19.418258-168.800497 65.929572-7.397481 6.67605-7.979742 18.085914-1.303692 25.481348 6.67605 7.397481 18.088984 7.975649 25.481348 1.303692 93.838202-84.709287 219.644489-64.825424 290.37746-3.105734 7.502881 6.547113 18.901489 5.77861 25.455765-1.733481 6.54916-7.507998 5.774517-18.903535-1.733481-25.455765C635.621529 217.666694 574.129013 193.258795 509.707794 193.258795z"  horiz-adv-x="1024" />

    
    <glyph glyph-name="02" unicode="&#58891;" d="M993.882 498.447l-322.259 51.2-159.624 316.235-159.624-316.235-322.259-51.2 225.882-246.965-60.235-349.365 316.235 165.647 319.247-165.647-60.235 349.365 222.871 246.965zM512 134.024l-237.929-123.482 45.176 259.012-168.659 186.729 243.953 39.153 117.459 234.918 117.459-237.929 243.953-39.153-168.659-186.729 45.176-259.012-237.929 126.494z"  horiz-adv-x="1024" />

    
    <glyph glyph-name="gouwuche1" unicode="&#58886;" d="M246.4-16a67.2 67.2 0 1 1 134.4 0 67.2 67.2 0 1 1-134.4 0z m470.4 0a67.2 67.2 0 1 1 134.4 0 67.2 67.2 0 1 1-134.4 0z m188.8 147.2h-537.6c-28.8 0-57.6 25.6-64 54.4L208 752C198.4 806.4 147.2 848 92.8 848H70.4c-12.8 0-25.6-12.8-25.6-25.6s12.8-25.6 25.6-25.6h22.4c28.8 0 57.6-25.6 64-54.4l96-566.4c9.6-54.4 60.8-96 115.2-96h537.6c12.8 0 25.6 12.8 25.6 25.6s-9.6 25.6-25.6 25.6z m-25.6 585.6H307.2c-12.8 0-25.6-12.8-25.6-25.6s12.8-25.6 25.6-25.6h572.8c25.6 0 38.4-16 32-41.6l-70.4-281.6c-6.4-32-41.6-57.6-73.6-60.8l-396.8-28.8c-12.8 0-25.6-12.8-22.4-28.8 0-12.8 12.8-25.6 28.8-22.4l396.8 28.8c54.4 3.2 105.6 48 118.4 99.2l70.4 281.6c12.8 54.4-25.6 105.6-83.2 105.6z"  horiz-adv-x="1024" />

    
    <glyph glyph-name="liaotian" unicode="&#59180;" d="M531.609859 750.316606c190.643717 0 345.199192-154.555475 345.199192-345.199192s-154.555475-345.199192-345.199192-345.199192-345.199192 154.555475-345.199192 345.199192 154.555475 345.199192 345.199192 345.199192zM642.073859 370.59103h-6.904243v-69.026909l-92.078545 69.026909h-66.712566c-34.324687 0-62.136889 27.825131-62.136889 62.136889v82.84703c0 34.324687 27.810909 62.136889 62.136889 62.136889h165.695354c34.310465 0 62.136889-27.812202 62.136888-62.136889v-82.84703c-0.001293-34.311758-27.826424-62.136889-62.136888-62.136889z m48.327111 148.436041c0 24.791919-19.574949 44.876283-43.725576 44.876283H471.775677c-24.150626 0-43.725576-20.084364-43.725576-44.876283v-89.752566c0-24.77899 19.574949-44.862061 43.725576-44.862061H555.054545l66.306586-55.245575v55.218424l-0.131878 0.025859h25.444848c24.150626 0 43.725576 20.084364 43.725576 44.86206l0.001293 89.753859zM372.817455 360.234667c0-24.777697 19.574949-44.862061 43.725575-44.862061h25.483637l-0.169374-0.025859v-55.218424l66.306586 55.244283h44.157414v-13.808485h-32.205576l-92.065616-69.038545v69.038545h-6.902949c-34.324687 0-62.136889 27.813495-62.136889 62.12396v82.84703c0 21.536323 10.970505 40.495838 27.615676 51.64994v-15.612122c-8.460929-8.185535-13.807192-19.705535-13.807192-32.572767l-0.001292-89.765495z"  horiz-adv-x="1024" />

    
    <glyph glyph-name="xiaolian2" unicode="&#58912;" d="M293.553 270.408S315.398 100.02 512 100.02c200.971 0 218.447 170.389 218.447 170.389H293.553zM512 834C262.971 834 62 633.029 62 384s200.971-450 450-450 450 200.971 450 450S756.66 834 512 834z m0-847.573c-218.447 0-397.573 179.126-397.573 397.573S293.553 781.573 512 781.573c218.447 0 397.573-179.126 397.573-397.573 0-218.447-179.126-397.573-397.573-397.573zM367.825 397.107c30.582 0 52.427 21.845 52.427 52.427 0 13.107-4.369 26.213-13.107 34.952-4.369 4.369-8.738 4.369-8.738 8.738-8.738 4.369-21.845 8.738-30.582 8.738-30.582 0-52.427-21.845-52.427-52.427s21.845-52.427 52.427-52.427zM603.748 449.534c0-28.955 23.472-52.427 52.427-52.427s52.427 23.472 52.427 52.427-23.472 52.427-52.427 52.427-52.427-23.472-52.427-52.427z"  horiz-adv-x="1024" />

    
    <glyph glyph-name="liaotian1-copy-copy" unicode="&#58893;" d="M1095.291 447.694c-43.96 0-79.932-35.718-79.932-79.932s35.967-79.932 79.932-79.932 79.932 35.967 79.932 79.932-35.718 79.932-79.932 79.932zM1806.926 1062.667c0 61.447-49.958 111.405-111.405 111.405h-1200.215c-61.447 0-111.405-49.958-111.405-111.405v-111.654h96.667v126.391h1229.936v-787.571h-126.391v-96.667h111.405c61.447 0 111.405 49.958 111.405 111.405v758.096zM779.566 447.694c-43.96 0-79.932-35.718-79.932-79.932s35.967-79.932 79.932-79.932 79.932 35.967 79.932 79.932-35.967 79.932-79.932 79.932zM1491.199 746.685c0 61.447-49.958 111.405-111.405 111.405h-1200.466c-61.447 0-111.405-49.958-111.405-111.405v-758.096c0-61.447 49.958-111.405 111.405-111.405h141.129v-294.994l294.994 294.994h764.088c61.447 0 111.405 49.958 111.405 111.405v758.096h0.249zM1388.291-19.9h-815.546l-149.371-149.371v149.371h-252.781v775.328h1217.699v-775.328zM463.585 447.694c-43.96 0-79.932-35.718-79.932-79.932s35.967-79.932 79.932-79.932 79.932 35.967 79.932 79.932-35.718 79.932-79.932 79.932z"  horiz-adv-x="1879" />

    
    <glyph glyph-name="tupian2" unicode="&#58913;" d="M864.102 70.574H158.304c-36.767 0-66.679 29.91-66.679 66.678V620.96c0 36.767 29.912 66.678 66.679 66.678h705.798c36.767 0 66.678-29.91 66.678-66.678v-483.708c0-36.767-29.91-66.678-66.678-66.678zM158.304 653.878c-18.151 0-32.918-14.767-32.918-32.918v-483.708c0-18.152 14.767-32.917 32.918-32.917h705.798c18.151 0 32.917 14.765 32.917 32.917V620.96c0 18.151-14.766 32.918-32.917 32.918H158.304z m0 0M602.622 473.572c-38.977 0-70.683 31.71-70.683 70.684 0 38.978 31.71 70.684 70.683 70.684s70.684-31.706 70.684-70.684c0.001-38.974-31.71-70.684-70.684-70.684z m0 107.607c-20.358 0-36.922-16.561-36.922-36.923 0-20.358 16.56-36.923 36.922-36.923 20.36 0 36.923 16.565 36.923 36.923 0 20.359-16.564 36.923-36.923 36.923z m0 0M852.554 202.644l-133.15 133.15c-3.338 3.338-7.719 4.975-12.091 4.935-4.373 0.04-8.759-1.598-12.092-4.936l-81.204-81.2c-0.176-0.18-0.332-0.373-0.5-0.556L426.265 441.294a16.819 16.819 0 0 1-12.165 4.932 16.81 16.81 0 0 1-12.16-4.932l-235.02-235.017c-6.592-6.592-6.592-17.281 0-23.875 6.594-6.593 17.284-6.593 23.875 0l223.305 223.307 266.2-266.198c6.59-6.592 17.284-6.592 23.875 0 6.591 6.59 6.591 17.28 0 23.871l-66.838 66.838c0.184 0.167 0.376 0.32 0.556 0.5l69.42 69.42 121.37-121.368c6.591-6.592 17.28-6.592 23.872 0h0.004c6.591 6.591 6.591 17.28-0.004 23.872z m0 0"  horiz-adv-x="1024" />

    
    <glyph glyph-name="shopping" unicode="&#58975;" d="M896 179.20000000000005h-591.36l-74.24 540.16c-10.24 74.24-64 125.44-128 125.44-15.36 0-25.6-10.24-25.6-25.6s10.24-25.6 25.6-25.6c46.08 0 71.68-40.96 76.8-79.36l76.8-563.2c2.56-12.8 12.8-23.04 25.6-23.04h614.4c15.36 0 25.6 10.24 25.6 25.6s-10.24 25.6-25.6 25.6zM942.08 604.1600000000001c-5.12 5.12-12.8 10.24-20.48 10.24h-614.4c-15.36 0-25.6-10.24-25.6-25.6s10.24-25.6 25.6-25.6h581.12l-64-232.96-468.48-48.64c-12.8-2.56-23.04-12.8-23.04-28.16 2.56-12.8 12.8-23.04 25.6-23.04h2.56l486.4 51.2c10.24 0 20.48 7.68 23.04 17.92l76.8 281.6c0 7.68 0 17.92-5.12 23.04zM358.4 76.79999999999995c-28.16 0-51.2-23.04-51.2-51.2s23.04-51.2 51.2-51.2 51.2 23.04 51.2 51.2-23.04 51.2-51.2 51.2zM768 76.79999999999995c-28.16 0-51.2-23.04-51.2-51.2s23.04-51.2 51.2-51.2 51.2 23.04 51.2 51.2-23.04 51.2-51.2 51.2z"  horiz-adv-x="1024" />

    
    <glyph glyph-name="instagram" unicode="&#59072;" d="M658.247863 384c0 80.566857-65.718857 146.285714-146.285714 146.285714s-146.285714-65.718857-146.285715-146.285714 65.718857-146.285714 146.285715-146.285714 146.285714 65.718857 146.285714 146.285714z m78.848 0c0-124.562286-100.571429-225.133714-225.133714-225.133714S286.828434 259.437714 286.828434 384 387.399863 609.133714 511.962149 609.133714s225.133714-100.571429 225.133714-225.133714z m61.732571 234.276571c0-29.147429-23.442286-52.553143-52.553143-52.553142S693.722149 589.165714 693.722149 618.276571s23.442286 52.553143 52.553142 52.553143 52.553143-23.442286 52.553143-52.553143zM511.962149 744.009143c-64 0-201.142857 5.156571-258.852572-17.700572-20.004571-8.009143-34.852571-17.700571-50.285714-33.133714s-25.161143-30.281143-33.133714-50.285714c-22.857143-57.709714-17.700571-194.852571-17.700572-258.852572s-5.156571-201.142857 17.700572-258.852571c8.009143-20.004571 17.700571-34.852571 33.133714-50.285714s30.281143-25.161143 50.285714-33.133715c57.709714-22.857143 194.852571-17.700571 258.852572-17.700571s201.142857-5.156571 258.852571 17.700571c20.004571 8.009143 34.852571 17.700571 50.285714 33.133715s25.161143 30.281143 33.133715 50.285714c22.857143 57.709714 17.700571 194.852571 17.700571 258.852571s5.156571 201.142857-17.700571 258.852572c-8.009143 20.004571-17.700571 34.852571-33.133715 50.285714s-30.281143 25.161143-50.285714 33.133714C713.105006 749.165714 575.962149 744.009143 511.962149 744.009143zM950.819291 384c0-60.562286 0.585143-120.576-2.852571-181.138286-3.437714-70.290286-19.419429-132.571429-70.838857-183.990857s-113.700571-67.437714-183.990857-70.838857c-60.562286-3.437714-120.576-2.852571-181.138286-2.852571s-120.576-0.585143-181.138286 2.852571c-70.290286 3.437714-132.571429 19.419429-183.990857 70.838857S79.431863 132.571429 76.03072 202.861714C72.593006 263.424 73.178149 323.437714 73.178149 384s-0.585143 120.576 2.852571 181.138286c3.437714 70.290286 19.419429 132.571429 70.838857 183.990857s113.700571 67.437714 183.990857 70.838857c60.562286 3.437714 120.576 2.852571 181.138286 2.852571s120.576 0.585143 181.138286-2.852571c70.290286-3.437714 132.571429-19.419429 183.990857-70.838857s67.437714-113.700571 70.838857-183.990857C951.404434 504.576 950.819291 444.562286 950.819291 384z"  horiz-adv-x="1024" />

    
    <glyph glyph-name="dianzan1" unicode="&#58914;" d="M856.384 493.12C788.672 520.064 728 515.2 697.92 503.232c-3.072 32.704-2.816 96.96 9.152 168.512 15.36 59.712-19.392 119.68-57.088 170.048C630.528 867.648 592.192 896 550.848 896h-0.128c-47.36 0-57.92-51.712-73.92-149.504-9.088-55.296-19.328-110.4-35.904-147.584-22.336-49.792-57.92-82.432-112.064-110.848-53.824-28.224-89.728-16.064-98.88-63.36-8.704-45.12-47.936-475.712 30.976-512.704 38.784-18.176 210.048-39.168 349.632-39.168 186.752 0 222.08 89.28 271.744 236.416 4.8 14.208 10.816 35.328 21.696 57.664 23.68 48.832 51.008 109.632 57.344 164.288 11.84 101.824-47.424 139.008-104.96 161.92z m42.944-154.56c-5.12-43.968-32-99.392-53.568-144-12.224-25.216-22.784-47.104-28.864-65.024-45.568-134.976-37.632-194.624-188.48-194.624-108.416 0-279.104 24.512-312.576 38.272-33.472 13.824-22.656 385.28-6.912 411.2s41.792 31.104 81.792 52.096c66.88 35.072 93.952 80.832 122.24 144 20.032 44.736 21.888 108.8 32 170.816 5.952 36.48 4.736 75.136 23.68 80.704 6.592 1.92 25.792-17.664 41.344-38.976 30.784-42.304 46.592-78.784 39.168-108.032-0.384-2.176-35.712-217.472 13.824-247.616 4.672-2.816 13.12-5.184 18.496-5.184 10.176 0 18.176 3.84 26.752 7.936 11.584 5.504 25.856 12.288 49.984 12.288 21.952 0 47.552-5.824 76.288-17.28 56.448-22.4 70.912-44.096 64.832-96.576zM160 448c-78.08 0-96-43.52-96-97.536V9.6c0-54.08 18.304-97.536 96-97.536 78.08 0 96 43.52 96 97.536V350.464C256 404.48 237.696 448 160 448z m32-318.08v-122.112c0-27.456-9.088-40.896-32-40.896-19.392 0-32 13.44-32 40.896V352.192c0 27.456 9.088 40.896 32 40.896 19.392 0 32-13.44 32-40.896V129.92z"  horiz-adv-x="1024" />

    
    <glyph glyph-name="QQ" unicode="&#58979;" d="M331.848 402.242l-0.966 2.971-0.774 3.897-0.539 2.145v8.761l0.928 3.434 0.964 3.669 1.235 3.819 1.68 4.247 2.219 4.438 3.125 4.437v3.127l0.308 2.895 0.465 3.976 1.352 4.4 1.235 4.826 0.981 2.198 1.141 2.065 1.464 2.296 1.583 1.678v10.98l0.925 5.655 0.927 6.561 1.66 7.854 2.277 8.161 1.698 4.496 1.679 4.903 1.832 4.554 2.203 4.9 2.237 5.327 2.585 5.036 2.896 5.347 3.667 5.346 1.678 3.047 1.814 2.529 3.918 5.636 4.013 5.634 4.594 5.809 4.902 5.654 5.326 5.558 5.558 5.732 6.715 6.176 4.287 3.744 5.19 4.033 5.267 3.589 5.71 3.434 5.484 3.051 6.174 2.508 6.562 3.145 6.525 2.141 6.521 2.201 7.024 2.202 7.024 1.697 7.409 1.369 7.489 1.216 14.78 2.008 7.876 0.425h23.275l7.757-0.964 7.794-0.926 7.954-0.849 7.37-1.757 7.796-1.679 7.316-1.889 8.01-2.143 7.331-2.604 7.025-2.973 7.489-3.125 6.85-3.436 6.637-3.803 6.505-4.206 5.633-3.878 2.588-2.22 2.742-1.602 5.206-4.437 4.403-4.265 4.36-4.419 4.284-4.901 3.509-4.71 4.172-4.902 2.933-5.248 2.952-4.669 3.145-5.404 2.585-4.748 4.4-9.997 2.16-5.171 1.679-4.804 1.68-5.19 1.505-4.883 1.08-4.189 1.353-4.977 2.39-8.839 1.526-7.719 0.983-7.468 0.849-6.019 1.353-9.166 0.308-1.448 1.081-1.679 2.896-4.728 1.851-3.185 1.66-3.377 2.123-3.569 1.852-4.284 1.196-4.439 1.311-4.787 1.003-4.958 0.465-2.452 0.387-2.97v-2.589l-0.388-2.604v-3.222l-0.774-3.107-1.389-6.041-1.584-3.049-1.154-3.434v-0.829l0.538-1.064 1.583-2.528 6.872-10.149 5.44-7.622 2.583-5.116 3.514-5.577 3.052-6.097 3.511-6.559 3.513-7.336 3.956-8.3 2.22-5.11 2.044-4.959 1.776-5.27 1.738-4.731 1.312-4.958 1.35-4.651 1.703-9.088 1.347-9.302 0.925-8.242v-11.597l-0.617-4.132-0.887-7.08-1.235-6.408-1.89-5.786-0.695-2.377-1.312-2.838-1.119-1.967-1.467-2.452-1.312-1.526-1.659-1.986-1.469-1.599-1.58-1.372-1.893-0.832-1.701-0.846-1.389-0.464h-2.121l-1.37 0.464-2.604 1.292-1.197 0.829-1.234 0.928-1.367 1.234-1.371 1.351-2.277 2.527-2.704 3.569-2.12 3.687-2.127 2.951-2.064 3.436-2.913 6.114-3.279 6.351-0.387 0.215h-0.54l-1.352-0.981-0.772-1.68-1.272-2.067-2.239-6.176-3.358-8.782-4.325-10.514-3.242-5.286-3.417-5.483-4.031-6.174-4.286-6.043-2.198-2.738-2.665-2.973-6.116-6.04 0.537-0.52 0.832-0.85 3.052-1.83 12.735-6.101 5.559-3.126 5.287-3.05 5.25-3.82 4.671-3.973 2.279-1.74 1.699-2.067 1.735-2.375 1.467-2.583 0.771-2.141 0.967-2.606 0.387-2.198 0.462-2.589-0.462-1.757v-1.752l-0.387-1.838-0.967-1.674-0.383-1.312-0.852-1.585-2.314-3.128-2.121-2.53-1.66-1.907-1.391-1.371-3.511-2.588-3.977-2.215-4.246-2.14-4.516-2.065-5.096-1.971-2.703-0.85-2.428-0.676-5.868-1.366-6.097-1.314-6.101-1.293-6.638-1.064-6.869-0.308-7.024-0.847h-21.809l-7.874 0.466-7.334 0.69-7.873 1.063-7.834 0.831-8.26 1.154-7.987 1.987-7.8 1.527-7.756 2.198-7.954 2.841-7.794 2.372-4.091 1.347-3.666 1.318-2.318 0.904-2.275 0.444h-6.487l-7.484 0.543-3.804 0.384-4.883 0.542-3.128-2.817-4.282-2.665-5.79-2.838-6.405-3.511-3.9-1.912-4.051-1.507-8.994-3.661-4.883-1.234-5.115-1.374-7.104-1.369-4.436-0.386-4.707-0.386-4.903-0.54-5.712-0.232h-23.33l-13.183 0.232-12.777 1.312-6.481 0.908-12.353 1.836-6.099 1.234-5.654 1.812-5.654 1.314-5.095 2.043-4.822 1.912-4.478 2.143-3.897 2.354-3.9 2.834-1.312 1.372-1.736 1.66-1.313 1.469-1.196 1.674-1.083 1.685-0.847 1.674-1.218 3.573-0.443 1.85-0.54 2.046v1.913l0.54 2.139v2.144l0.443 2.142v4.267l0.213 2.295 1.005 2.586 0.846 2.586 1.544 3.124 1.119 1.236 0.927 1.37 2.431 2.971 1.929 1.527 1.814 1.08 1.68 1.351 2.681 0.85 2.122 1.293 2.665 1.368 3.049 0.931 3.049 0.921 3.514 0.753 3.355 0.444 3.977 0.542 4.284 0.307 1.139 0.39h0.231l0.541 0.457v0.525l-0.773 1.061-2.295 1.083-5.712 4.958-3.822 3.05-4.438 3.875-4.478 4.366-4.67 5.553-5.324 6.252-2.009 3.376-2.664 3.495-2.276 4.051-2.046 4.44-2.781 4.185-1.812 4.805-2.14 4.805-2.145 5.346-1.581 5.095-1.467 6.349-0.463 0.23h-0.444l-0.231 0.445h-0.54l-0.907-0.445-0.463-0.23-0.619-1.062-0.231-1.312-0.462-1.138-0.81-1.912-2.627-4.651-1.35-2.835-2.142-2.435-2.296-2.968-2.509-3.284-2.662-2.896-3.126-2.814-2.914-2.666-3.185-2.082-3.512-2.201-3.358-1.31-3.977-0.985-3.898-0.365h-0.926l-0.89 0.365-0.693 1.525-1.159 0.771-1.504 3.669-0.926 1.967-1.004 2.838-0.83 2.951-0.444 2.915-1.234 6.635-0.463 3.903v12.811l0.463 9.535 0.772 4.879 0.907 5.04 0.83 5.421 1.466 5.016 1.66 5.829 1.697 5.637 2.279 5.79 2.143 5.572 2.951 5.655 2.78 6.097 3.357 5.712 3.954 6.179 4.035 5.578 4.207 6.172 3.514 4.266 4.496 4.979 4.728 4.939 2.201 2.374 2.682 2.682 3.878 3.358 3.976 3.434 6.484 5.79 4.9 3.589zM511.418-62.8c-60.388 0-118.972 11.828-174.132 35.155-53.273 22.534-101.113 54.786-142.192 95.862-41.079 41.081-73.332 88.917-95.865 142.187C75.901 265.56 64.07 324.142 64.07 384.527c0 60.384 11.832 118.969 35.159 174.126 22.533 53.27 54.786 101.107 95.865 142.185 41.079 41.078 88.92 73.33 142.192 95.86 55.161 23.328 113.744 35.158 174.131 35.158s118.971-11.828 174.129-35.158c53.273-22.531 101.113-54.783 142.192-95.86 41.078-41.079 73.332-88.917 95.866-142.184 23.33-55.158 35.159-113.74 35.159-174.126 0-60.383-11.83-118.965-35.159-174.123-22.534-53.272-54.788-101.108-95.866-142.187-41.079-41.078-88.92-73.328-142.192-95.862-55.157-23.326-113.742-35.155-174.129-35.155z m0 869.028C278.882 806.228 89.7 617.055 89.7 384.529S278.881-37.17 511.418-37.17c232.533 0 421.716 189.173 421.717 421.699 0 232.526-189.181 421.699-421.717 421.699z"  horiz-adv-x="1024" />

    
    <glyph glyph-name="laba" unicode="&#59048;" d="M561.728-4.16c0-96.128-73.664-46.592-73.664-46.592l-319.424 268.8h-49.28A55.808 55.808 0 0 0 64 274.368V499.584c0 31.104 24.768 56.32 55.36 56.32h58.944l309.76 262.72s73.728 50.048 73.728-46.912l-0.064-775.872m166.016 241.024c92.224 75.072 86.144 217.344 0 281.472-33.728 20.288-55.232-46.976-55.232-46.976s86.016-107.904 0-187.648c-16.96-21.888 15.36-67.264 55.232-46.848m46.144 440.96c-12.224 10.944-72.256-29.632-36.864-65.664 182.848-154.816 185.92-300.224 0-459.84-27.648-26.624 9.216-76.608 36.864-65.664 253.504 117.376 242.816 481.664 0 591.168m0 0z"  horiz-adv-x="1024" />

    
    <glyph glyph-name="tupian3" unicode="&#59606;" d="M256 512a2 2 0 1 1 128 0 2 2 0 1 1-128 0zM842.688 0H181.312C116.64 0 64 52.64 64 117.312V650.688C64 715.36 116.64 768 181.312 768h661.376C907.36 768 960 715.36 960 650.688v-533.376C960 52.64 907.36 0 842.688 0zM181.312 704C151.936 704 128 680.064 128 650.688v-533.376C128 87.904 151.936 64 181.312 64h661.376C872.096 64 896 87.904 896 117.312V650.688C896 680.064 872.096 704 842.688 704H181.312zM224 127.008c-3.136 0-6.336 0.48-9.504 1.472-16.864 5.248-26.304 23.136-21.056 40 2.368 7.616 60.16 186.848 183.168 183.648 35.008-0.864 64.32-9.696 92.672-18.24 36.416-10.944 67.904-20.384 109.632-13.728 20.448 3.296 28.896 23.84 43.328 69.984 19.04 60.832 47.808 152.736 174.656 152.736 17.696 0 32-14.336 32-32s-14.304-32-32-32c-75.968 0-92.672-40.992-113.6-107.872-14.496-46.4-32.608-104.16-94.272-114.016-56.288-8.96-99.776 4.128-138.208 15.616-25.408 7.648-49.44 14.88-75.872 15.52-0.48 0.032-0.96 0.032-1.44 0.032-62.016 0-106.88-99.872-119.008-138.656-4.224-13.696-16.864-22.496-30.496-22.496z"  horiz-adv-x="1024" />

    
    <glyph glyph-name="kefu" unicode="&#58918;" d="M819.334009 394.597184a73.560258 73.560258 0 0 0-42.179047 11.303985 305.954754 305.954754 0 0 1 5.51943 89.033942 318.41565 318.41565 0 0 1-7.49582 68.089033 0.482046 0.482046 0 0 0 0.168717 0.144613h-0.216921a306.822437 306.822437 0 0 1-301.278906 248.591251 302.098384 302.098384 0 0 1-172.524352-47.168226 15.280866 15.280866 0 0 1-10.388097 1.34973 20.414659 20.414659 0 0 0-20.414658 22.19823 22.270537 22.270537 0 0 0 9.640925 18.149041l-0.361535 0.482046a363.366462 363.366462 0 0 0 558.113147-227.212499 89.178556 89.178556 0 0 0 52.518939-88.262668c-0.024102-50.205117-33.45401-96.698477-71.101822-96.698478z m-342.252837 353.797844a227.260704 227.260704 0 1 0-227.236601-227.260704 227.236602 227.236602 0 0 0 227.188397 227.260704zM450.954266 344.512579a171.415646 171.415646 0 0 1 174.597151 176.621745 165.317761 165.317761 0 0 1-171.126418 172.59666c-100.410234 0-159.075262-72.306937-159.075262-172.59666s55.146091-176.621746 155.556324-176.621745zM239.890316 710.674909A317.210534 317.210534 0 0 1 171.367441 572.954296h-1.446138c0.433842-0.265125 0.747172-0.747172 1.181013-1.036399a315.18594 315.18594 0 0 1 5.856862-157.195282 56.18249 56.18249 0 0 0-36.466799-14.340876C102.844567 400.381739 72.306937 441.090545 72.306937 491.295662a88.600101 88.600101 0 0 0 54.109692 88.91343 362.257756 362.257756 0 0 0 78.959175 160.111662 22.366946 22.366946 0 0 0 17.498279 8.773241 22.728481 22.728481 0 0 0 22.728481-22.72848 22.487458 22.487458 0 0 0-6.14609-15.304969zM178.2366 280.761963c1.325627 2.000492 34.70733 21.041319 34.70733 21.041318a317.885399 317.885399 0 0 1 531.600603 0s35.02066-28.030989 34.876046-28.657649c94.191837-83.273489 157.195282-176.404825 157.195282-312.004435 0 0-686.168733-1.783571-464.572072-1.783571a22.656174 22.656174 0 0 0-0.723069 45.312348v1.132808l382.672414 0.216921c-11.25578 102.868669-29.669947 134.032959-102.77226 199.591249-66.618792-75.87408-170.885395-95.348748-279.803745-95.348748s-202.290708 70.66798-268.933602 146.54206a379.659625 379.659625 0 0 1-127.019187-251.001482h56.712741v-1.132808c-29.332514-0.964092 23.45155 8.869651 23.45155-22.583867a22.728481 22.728481 0 0 0-22.72848-22.728481c41.962126 0-105.327105 1.783571-105.327106 1.783571-0.048205 135.59961 56.423513 236.323173 150.615351 319.620766z m44.854404-276.091989v1.132808h157.315793v-1.132808c0.265125 0 0.457944 0.144614 0.72307 0.144614a22.728481 22.728481 0 1 0 0-45.456962H223.814073a22.656174 22.656174 0 0 0-0.771274 45.312348zM842.833763 399.562261a59.4122 59.4122 0 0 0-37.575505 14.461387 334.202664 334.202664 0 0 1 6.194295 168.499266l0.168716 0.144614h-0.216921a336.998532 336.998532 0 0 1-515.62077 208.822435 17.570586 17.570586 0 0 0-14.099853-4.699951 24.102312 24.102312 0 0 0-24.102312 24.102313 23.740778 23.740778 0 0 0 10.31579 19.28185l-0.361535 0.506148a385.371873 385.371873 0 0 0 591.904589-241.023124 94.625679 94.625679 0 0 0 55.700444-93.613382c0-53.242008-32.369406-96.481557-72.306938-96.481556zM476.74374 768.665073a241.023124 241.023124 0 1 0-241.023124-241.023124 241.023124 241.023124 0 0 0 241.023124 241.023124z m0-433.841624a192.818499 192.818499 0 1 1-192.8185 192.8185 192.818499 192.818499 0 0 1 192.8185-192.8185zM225.187905 728.655235A336.420077 336.420077 0 0 1 152.495331 582.595221h-1.542548c0.457944-0.289228 0.819479-0.795376 1.277422-1.108706a333.913436 333.913436 0 0 1 6.194295-166.715695 59.460405 59.460405 0 0 0-38.5637-15.208559c-39.937532 0-72.306937 43.167242-72.306938 96.409249 0 46.421054 24.608461 85.129368 57.363504 94.312349a384.50419 384.50419 0 0 0 83.755536 169.800791 23.692573 23.692573 0 0 0 18.55878 9.303493 23.933596 23.933596 0 0 0 17.594688-40.323169z m-61.942943-434.034443c0.602558 0.891786 7.447615 6.604034 15.039843 12.798328 0-0.168716 0.265125-0.31333 0.409739-0.482046a30.778653 30.778653 0 0 0 16.003936 6.001476 38.828825 38.828825 0 0 0 21.065421-8.917856 335.576496 335.576496 0 0 1 532.92623 0.723069l0.674865-0.265125a24.897689 24.897689 0 0 0 34.803739 3.85637 0.144614 0.144614 0 0 0 0.192819 0c2.91638-1.229218 16.534186-14.461387 16.485981-13.738318A480.407291 480.407291 0 0 0 964.092497-66.287234s-365.439261-0.93999-494.627655-1.494344a23.861289 23.861289 0 0 0 1.156911 47.674374v1.181014h442.687172A432.781122 432.781122 0 0 1 771.273998 256.418627a383.226768 383.226768 0 0 0-578.455499 0 432.781122 432.781122 0 0 1-142.059029-275.344817h60.255781V-19.96259c-9.640925 1.446139-15.160355-0.747172 0-0.241023V-19.96259a25.307428 25.307428 0 0 0 24.873586-24.102312 24.102312 24.102312 0 0 0-22.680276-23.813085c-24.945893 0.530251-113.136255 1.590753-113.136254 1.590753a480.407291 480.407291 0 0 0 163.172655 360.908026z m306.099368-362.40237c0.674865 0 1.229218-0.385637 1.904083-0.385636-68.281851 0-54.832761 0.168716-1.783571 0.385636zM111.714218-68.167214c0.506149 0 0.915888 0.265125 1.422037 0.289227 8.267093-0.289228 9.616823-0.289228-1.422037-0.289227z m95.637976 48.06001v1.181014h166.860309v-1.181014c0.265125 0 0.482046 0.144614 0.747172 0.144614a24.102312 24.102312 0 0 0 0-48.204624H208.123468a24.102312 24.102312 0 0 0-0.843581 48.06001z"  horiz-adv-x="1024" />

    
    <glyph glyph-name="dianzan2" unicode="&#58915;" d="M592.9 800c-45 0-84.2-30.7-92.5-74.2 0 0-13.4-68.1-20.4-92.6-11.5-40.4-51.8-85-80.9-99.3-22-10.9-103.7-11-108.8-11H179.2c-30.6 0-55.5-24.8-55.5-55.5v-444c0-30.6 24.8-55.5 55.5-55.5h512.3c82.4 0 152.4 60.3 164.6 141.8L899 395.5c10.1 67.1-41.9 127.4-109.8 127.4H662.9s18.7 62.1 28.3 167c4.8 53.1-32.9 103.8-88.1 109.5-3.4 0.4-6.8 0.6-10.2 0.6zM345.6 23.5V469.1c36.4 2.4 62.6 7.5 78.1 15.2 40.9 20.2 93.1 75.8 109.6 133.8 7.4 25.9 20 89.9 21.5 97.4 3.2 16.8 19.2 29.1 38 29.1 1.5 0 3-0.1 4.5-0.2 26.4-2.7 40.5-27.7 38.6-49.3-8.8-97.1-26-155.6-26.2-156l-21.6-71.5h201.1c16.4 0 31.4-6.9 42.1-19.3 10.7-12.4 15.3-28.2 12.8-44.5L801.3 118c-8.2-54.8-54.4-94.5-109.8-94.5H345.6z m-166.4 0v444h110.9v-444H179.2z"  horiz-adv-x="1024" />

    
    <glyph glyph-name="dianzan3" unicode="&#58922;" d="M859.229091 495.499636a62.952727 62.952727 0 0 1-49.570909 23.598546H551.563636l22.667637 62.417454c9.099636 25.088 15.104 52.363636 17.221818 78.382546 3.118545 38.539636-2.629818 71.354182-15.592727 94.813091-14.568727 26.414545-38.935273 42.589091-73.285819 47.639272-10.146909 1.489455-16.500364 0.093091-21.410909-3.584-11.52-8.634182-17.175273-27.392-24.808727-86.667636a1125.585455 1125.585455 0 0 0-5.352727-38.237091c-6.679273-41.495273-15.872-72.843636-32.139637-99.770182-28.16-46.568727-74.24-73.867636-150.248727-73.867636h-74.24c-23.877818 0-43.124364-19.013818-43.124363-42.007273v-334.754909c0-22.993455 19.246545-42.007273 43.10109-42.007273h540.858182c14.242909 0 28.299636 4.840727 39.400728 13.521455 10.984727 8.610909 18.850909 20.852364 22.016 34.234182l74.402909 314.298182a60.090182 60.090182 0 0 1-11.822546 51.991272z m-241.221818 70.144h191.650909c33.652364 0 64.954182-14.941091 85.876363-41.006545a106.612364 106.612364 0 0 0 20.829091-91.857455L841.937455 118.45818199999997a108.520727 108.520727 0 0 0-38.609455-60.136727A110.894545 110.894545 0 0 0 735.232 34.90909099999999H194.373818C144.942545 34.90909099999999 104.727273 74.63563599999998 104.727273 123.461818V458.216727c0 48.826182 40.215273 88.552727 89.646545 88.552728h74.24c71.144727 0 97.093818 29.323636 110.429091 51.409454 19.991273 33.047273 25.925818 79.173818 31.185455 119.854546 6.539636 50.920727 12.218182 94.882909 43.077818 117.992727 15.266909 11.426909 34.117818 15.592727 56.064 12.381091 48.407273-7.121455 85.480727-31.720727 107.287273-71.191273 17.687273-32.069818 25.041455-73.937455 21.201454-121.088-1.163636-14.545455-3.397818-29.323636-6.516364-43.938909l-13.335272-46.545455zM260.189091 514.327273h46.545454v-439.854546h-46.545454z"  horiz-adv-x="1024" />

    
    <glyph glyph-name="dianzan4" unicode="&#58923;" d="M692.77457 609.631944l0.046498 0.813716-0.046498-0.813716z m0 0M1002.451637 440.960238c-32.385898 58.91304-81.929579 92.1824-149.444759 95.321019-40.871793 1.90642-81.90633 0.743969-122.871119 0.95321h-5.556518c0.092996 0.929961 0.092996 1.44144 0.209242 1.92967 5.789008 29.22403 9.415857 58.750297 11.833755 88.439306 2.301654 28.177823 3.882588 56.402145 4.370818 84.649715 0.418483 24.341733 2.720136 48.84621-0.767218 73.025201C733.855604 829.102779 710.560077 861.930408 670.96698 881.622335c-43.382688 21.55185-86.556135 18.715468-127.241936-7.439689-30.270236-19.482686-48.543973-47.776755-55.425686-83.278022-2.929378-15.08862-2.301654-30.339983-2.231906-45.544848 0.116245-40.546307-7.323444-79.627925-26.248154-115.547675-49.125199-93.089113-126.660711-141.377346-232.164805-143.353513-40.778797-0.767218-81.580843-0.139494-122.382889-0.116246-12.089495 0-23.992998-1.418191-35.408272-5.463521-43.312941-15.344359-69.770336-52.91479-69.793585-99.180359-0.046498-134.914116 0-269.804983-0.023249-404.719098 0-13.833172 1.836673-27.433854 7.41644-40.127825 17.088036-38.825879 46.637552-61.912165 89.253023-63.67909 44.103408-1.836673 88.346311-0.627724 132.519466-0.697471 4.231323 0 8.416149 0.627724 12.275487 2.650389 10.671304 5.603016 14.437647 14.832881 14.437648 26.410897-0.069747 173.507504-0.046498 347.015009-0.02325 520.499264 0 4.696304-1.952918 10.78755 0.836966 13.693678 2.441148 2.534144 8.555643 1.534436 13.042705 2.138911 47.451268 6.486479 91.345435 22.551558 131.008279 49.450685 57.750588 39.128116 98.064405 91.740669 120.592714 157.837658 11.903503 34.96654 16.390566 71.025784 15.925585 107.828997-0.116245 8.764884-0.418483 17.553017 0.860214 26.34115 6.346985 43.847669 50.613136 73.652924 93.577342 62.795628 35.524516-8.974125 58.91304-39.058369 58.866542-76.001076-0.069747-45.707591-1.255448-91.391933-5.254281-136.936782-3.208366-36.710217-6.881713-73.397185-18.761966-108.642713a25.108951 25.108951 0 0 1-0.976459-13.484437c2.859631-13.065954 12.879962-20.668387 27.364107-20.738134 49.264693-0.255739 98.506136-0.511479 147.770829-0.674221 16.855546-0.046498 33.385606-1.604183 49.264693-7.858172 62.679382-24.736967 95.367517-91.880163 76.419558-156.651958-7.858172-26.899127-17.134534-53.310024-26.550391-79.674423-32.943874-92.135902-68.700881-183.1791-104.248647-274.338544-4.859047-12.46148-13.507686-21.644846-24.132492-29.270527-15.693095-11.275779-33.687843-14.181908-52.42656-14.181908-123.56859-0.023249-533.704712 0.023249-536.052865-0.232491a25.480936 25.480936 0 0 1-19.319943-38.732882c5.835506-9.462355 14.879379-12.275487 25.62043-12.275487 124.568298 0.116245 407.415986 0.069747 531.984284 0.069747 30.64222 0 58.843293 7.834923 83.417517 26.57364 16.065079 12.252238 29.526267 26.736383 37.012454 46.009829 13.623931 35.059536 27.457103 70.026076 41.034537 105.10886 29.735508 76.931037 59.238526 153.955071 85.207691 232.28105 6.974709 21.040371 13.461188 42.220237 14.670138 64.516056 1.766926 33.129866-4.184825 64.795044-20.226656 93.972576zM199.151183-76.446905c-31.479185 0.185992-62.958371 0.069747-94.437556 0.092996-31.200197 0.046498-53.565763 22.016831-53.589012 53.170529-0.092996 135.05361-0.092996 270.130469 0 405.18408 0.023249 30.665469 22.04008 52.868292 52.659051 53.124031 32.153407 0.278988 64.330064-0.023249 96.483471 0.185993 4.417316 0.023249 4.347568-2.022666 4.347568-5.207783-0.046498-83.626758-0.023249-167.230266-0.023249-250.833775 0-83.440765-0.046498-166.881531 0.116245-250.322297 0-4.603308-1.255448-5.440273-5.556518-5.393774z m0 0"  horiz-adv-x="1024" />

    
    <glyph glyph-name="tupian4" unicode="&#58924;" d="M904 720v-672H120V720h784m0 56H120c-30.9 0-56-25.1-56-56v-672c0-30.9 25.1-56 56-56h784c30.9 0 56 25.1 56 56V720c0 30.9-25.1 56-56 56zM204 188c-5.4 0-10.8 1.5-15.5 4.7-12.9 8.6-16.4 26-7.8 38.8l180.1 270.2c15.1 22.6 40.3 36.6 67.5 37.4 27.2 2.5 53.2-11.8 69.6-33.6l93.7-125c14 21.1 36.6 34.7 62.3 37.1 29.4 2.5 57.2-9.8 74.8-33.2l113.7-151.6c9.2-12.4 6.7-29.9-5.6-39.2-12.3-9.3-29.9-6.7-39.2 5.6L683.9 350.8c-8.4 11.3-20.2 11.4-24.9 11-4.6-0.4-16.2-2.8-22.5-15.4l-15.5-31c-4.3-8.7-12.9-14.5-22.5-15.4-9.7-0.5-19.1 3.3-24.9 11.1L453 471.9c-5.5 7.4-14.4 11.4-23.2 11.2-9.2-0.3-17.4-4.8-22.5-12.5l-180-270.1C221.9 192.4 213 188 204 188z m588 420c-30.9 0-56-25.1-56-56s25.1-56 56-56 56 25.1 56 56-25.1 56-56 56z"  horiz-adv-x="1024" />

    
    <glyph glyph-name="xiaolian3" unicode="&#59188;" d="M748.032 250.88c-6.656-0.512-12.288-3.584-16.384-8.192-55.296-64.512-135.168-101.376-219.648-101.376s-164.352 36.864-219.648 101.376c-4.096 5.12-10.24 7.68-16.384 8.192h-2.048c-5.632 0-11.264-2.048-15.36-5.632-5.12-4.096-7.68-10.24-8.192-16.384-0.512-6.144 1.536-12.8 5.632-17.408 64.512-75.264 157.696-118.272 256-118.272 98.816 0 192 43.008 256.512 118.272 4.096 5.12 6.144 11.264 5.632 17.408-0.512 6.656-3.584 12.288-8.192 16.384-5.12 4.096-11.264 6.144-17.92 5.632zM671.744 399.36h6.656c22.016 0 40.448 17.92 40.448 40.448v76.8c0 22.016-17.92 40.448-40.448 40.448h-6.656c-22.016 0-40.448-17.92-40.448-40.448v-76.8c0-22.528 18.432-40.448 40.448-40.448zM345.6 399.36h6.656c22.016 0 40.448 17.92 40.448 40.448v76.8c0 22.016-17.92 40.448-40.448 40.448h-6.656c-22.016 0-40.448-17.92-40.448-40.448v-76.8c0-22.528 18.432-40.448 40.448-40.448zM512 890.88c-276.48 0-501.76-225.28-501.76-501.76s225.28-501.76 501.76-501.76 501.76 225.28 501.76 501.76-225.28 501.76-501.76 501.76z m0-960.512c-252.928 0-458.752 205.824-458.752 458.752 0 252.928 205.824 458.752 458.752 458.752 252.928 0 458.752-205.824 458.752-458.752 0-252.928-205.824-458.752-458.752-458.752z"  horiz-adv-x="1024" />

    
    <glyph glyph-name="liaotian1" unicode="&#58895;" d="M387.890424 389.667146a62.805208 62.805208 0 0 0-61.849476-63.624406 62.805208 62.805208 0 0 0-61.849476 63.624406 62.805208 62.805208 0 0 0 61.849476 63.692673c34.133265 0 61.849476-28.53541 61.849476-63.692673z m470.356393 0a62.805208 62.805208 0 0 0-61.849476-63.624406 62.805208 62.805208 0 0 0-61.849477 63.624406 62.805208 62.805208 0 0 0 61.849477 63.692673c34.201532 0 61.849476-28.53541 61.849476-63.692673z m-235.792595 0a62.805208 62.805208 0 0 0-61.849477-63.624406 62.805208 62.805208 0 0 0-61.849476 63.624406 62.805208 62.805208 0 0 0 61.849476 63.692673c34.133265 0 61.849476-28.53541 61.849477-63.692673zM546.132241-127.99795200000005c301.60153 0 546.132241 229.239008 546.132241 511.998976C1092.264482 666.760992 847.733771 896 546.132241 896S0 666.760992 0 384.001024c0-106.017921 34.406331-204.526524 93.25208-286.241561L42.871381-71.33673199999998c-9.693847-32.358335 9.352515-52.701761 42.325249-45.465509l209.851313 45.943375A573.30232 573.30232 0 0 1 546.132241-127.99795200000005z"  horiz-adv-x="1092" />

    
    <glyph glyph-name="horn" unicode="&#59260;" d="M528.384 821.248L264.192 650.24H133.12C59.392 650.24 0 590.848 0 517.12v-266.24c0-72.704 58.368-133.12 133.12-133.12h132.096l264.192-169.984c36.864-16.384 65.536 1.024 65.536 37.888V782.336c0 36.864-29.696 54.272-66.56 38.912z m223.232-215.04c-12.288 13.312-33.792 14.336-47.104 1.024-13.312-12.288-14.336-33.792-1.024-47.104 6.144-7.168 16.384-21.504 27.648-44.032 18.432-37.888 29.696-82.944 29.696-133.12 0-51.2-11.264-95.232-29.696-133.12-10.24-22.528-21.504-36.864-27.648-44.032-12.288-13.312-12.288-33.792 1.024-47.104 13.312-12.288 33.792-12.288 47.104 1.024 10.24 11.264 24.576 30.72 38.912 59.392 22.528 47.104 36.864 101.376 36.864 162.816s-13.312 115.712-36.864 162.816c-15.36 30.72-29.696 50.176-38.912 61.44z m201.728 40.96c-26.624 46.08-53.248 76.8-72.704 94.208-13.312 12.288-34.816 10.24-47.104-3.072-12.288-14.336-10.24-34.816 3.072-47.104 3.072-3.072 9.216-9.216 17.408-18.432 14.336-16.384 28.672-35.84 41.984-59.392 38.912-65.536 61.44-142.336 61.44-229.376 0-87.04-23.552-163.84-61.44-229.376-13.312-22.528-27.648-43.008-41.984-59.392-8.192-9.216-14.336-16.384-17.408-18.432-13.312-12.288-14.336-33.792-3.072-47.104 12.288-13.312 33.792-14.336 47.104-3.072 18.432 16.384 46.08 48.128 72.704 94.208 44.032 74.752 70.656 163.84 70.656 263.168 0 100.352-25.6 188.416-70.656 263.168z"  horiz-adv-x="1024" />

    
    <glyph glyph-name="weixin6" unicode="&#58994;" d="M563.503001 395.266601c-8.887414 0-17.893532-9.124821-17.893532-18.189267 0-9.121751 9.006118-18.128893 17.893532-18.128893 13.5936 0 22.422685 9.008164 22.422685 18.128893 0 9.064446-8.829086 18.189268-22.422685 18.189267zM505.234923 481.54871c13.530155 0 22.481014 9.124821 22.481014 22.718421 0 13.656021-8.950859 22.660092-22.481014 22.660092-13.421684 0-26.900673-9.004071-26.900674-22.660092 0-13.5936 13.478989-22.718421 26.900674-22.718421zM379.858424 526.927223c-13.416568 0-26.957978-9.004071-26.957979-22.660092-0.001023-13.5936 13.542434-22.718421 26.957979-22.718421 13.421684 0 22.428825 9.124821 22.428825 22.718421 0 13.656021-9.007141 22.660092-22.428825 22.660092zM512 832.16002c-247.540839 0-448.177416-200.624297-448.177416-448.157973s200.636576-448.161043 448.177416-448.161043 448.177416 200.627367 448.177416 448.161043S759.540839 832.16002 512 832.16002z m-73.924663-536.89397c-22.37152 0-40.379663 4.589528-62.746066 9.121751l-62.631456-31.842219 17.893532 54.621015c-44.851511 31.781844-71.688739 72.689532-71.688739 122.541941 0 86.400812 80.696903 154.439418 179.171706 154.439418 88.11178 0 165.279301-54.382585 180.752713-127.485533-5.64558 0.64673-11.416004 1.060145-17.244756 1.060145-85.111446 0-152.328337-64.388473-152.328337-143.671167 0-13.243629 2.062985-25.957185 5.536086-38.07927-5.535063-0.470721-11.070126-0.706081-16.714683-0.706081z m264.275989-63.564712l13.480012-45.439911-49.145303 27.250644c-17.956977-4.532223-35.902698-9.064446-53.744042-9.064446-85.225033 0-152.442948 59.034535-152.442947 131.724067 0 72.628134 67.217914 131.779326 152.442947 131.779325 80.46052 0 152.155399-59.150168 152.155399-131.779325 0-40.906665-26.779923-77.163427-62.746066-104.470354zM662.035108 395.266601c-8.829086 0-17.721617-9.124821-17.721617-18.189267 0.001023-9.121751 8.893554-18.128893 17.721617-18.128893 13.480013 0 22.479991 9.008164 22.479991 18.128893 0 9.064446-8.999978 18.189268-22.479991 18.189267z"  horiz-adv-x="1024" />

    
    <glyph glyph-name="dianzan5" unicode="&#59008;" d="M438.377247 888.036997C449.351924 896.781923 464.906424 895.978086 478.60749 895.978086c32.440193 0 60.441364-10.21692 83.097276-30.402441 22.136234-19.758003 49.758526-49.118528 58.042654-89.909409 0.373759-1.625594 0.555518-3.261427 0.650237-4.956141 1.436154-30.509961-0.276479-63.206153-5.299179-97.095301-4.285423-28.766608-11.768274-60.625684-22.241193-94.701711a400.797157 400.797157 0 0 0-21.314477-54.031149h267.411437c30.558601 0 57.256737-10.122201 79.213771-30.164363 22.530472-20.38776 34.393466-47.326535 34.393466-77.644497 0-15.27802-3.235827-30.067083-9.425883-43.949908-5.949417-12.991949-13.765066-24.760223-23.436709-34.774905a104.882791 104.882791 0 0 0-16.790975-14.138825c13.401548-18.07353 20.42616-39.398246 20.426161-62.719755 0-29.908363-11.604435-57.046818-33.589629-78.420174a108.502617 108.502617 0 0 0-16.319937-13.296588c13.652427-18.608567 20.838319-40.324963 20.838319-63.774472 0-16.788415-4.697582-32.926592-14.044105-47.861573-3.627506-5.757418-139.074018-72.649957-40.468322-6.410215 3.023348 2.086392 0 0-3.235828-1.866233 14.397384-19.811763 21.649836-42.582874 21.649836-67.972855 0-20.845999-6.323175-39.283047-18.721207-54.865706-10.454999-13.117389-23.697828-24.089506-39.272807-32.412033a180.553536 180.553536 0 0 0-46.302539-17.172413c-15.889858-3.578866-63.142154-5.434859-76.305623-5.434859H256.395237c-25.338781 0-49.505087 4.211184-71.625961 12.69499-22.486952 8.563167-42.416475 20.933038-59.253529 36.794737-16.972734 16.043457-30.374282 35.350902-39.818084 57.420576-9.479643 21.974954-14.254024 46.809417-14.254025 73.760992V325.343512c0 14.044105 0.486398 28.28021 1.541114 42.419035 1.233915 15.976898 4.372463 31.349638 9.279964 45.595982 5.393899 15.574979 13.693387 29.918603 24.854943 42.813273 11.604435 13.391308 27.000215 24.212386 45.749582 32.202114 0.179199 0.10496 0.486398 0.189439 0.696317 0.294399 11.443155 4.623342 25.046942 11.760594 40.409442 21.240237 15.930818 9.909721 32.890752 21.974954 50.283324 35.711861 17.118653 13.596107 34.070907 29.178766 50.398524 46.294859a443.198272 443.198272 0 0 1 44.001108 53.86987c12.444111 17.96857 22.538152 36.966256 29.933963 56.309541 6.830053 18.06329 10.416599 36.669297 10.4166 55.124265v1.139195c0.785917 23.516068 4.044784 43.020632 9.853401 59.637528-0.00512-0.01024 17.113533 44.239187 49.515327 70.041326z m-9.423323-91.629722c-3.527666-10.017241-5.621738-23.306149-6.138856-39.482726-0.1152-26.347417-4.974061-52.551475-14.742983-77.895376-9.300444-24.368545-21.831595-47.976773-37.465454-70.392046a520.45877 520.45877 0 0 0-50.398523-61.772559c-18.414008-19.297205-37.675373-36.966256-57.208097-52.551475-19.212725-15.574979-38.136171-29.063567-56.237861-40.332643-18.836407-11.653075-7.900129-4.362223-23.206309-10.467799l-28.651408-15.928258c-9.134044-3.911665-15.106501-8.773086-19.950003-14.579143-5.670378-6.504935-9.669082-13.393868-12.415951-21.037998-3.118068-8.888285-5.11998-18.751927-5.788138-29.189006a483.262115 483.262115 0 0 1-1.512954-37.434734v-272.674777c0-18.07353 25.66646-56.39402 31.580037-70.161646 5.903337-13.928906 13.928906-25.487261 24.560544-35.350902 10.549719-10.045401 22.740391-17.584571 37.201775-23.02711 14.515143-5.463019 30.65588-8.273888 47.910213-8.273888h421.210518c8.179168 0 40.440162 1.282555 51.432759 3.719665 10.416599 2.278391 30.241162 6.000617 39.213927 10.744279 7.79517 4.226544 14.041545 9.300444 18.885047 15.487939 2.083832 2.58559 26.949015 28.625808 26.949014 36.164979 0 13.296588-3.932145 24.069026-12.351951 33.645949-7.385571 8.332768-38.781289 12.139473-51.29708 12.139473-18.414008 0-65.886463 14.791622-65.886463 33.054591 0 18.252729 47.472455 0.486398 65.886463 0.486398 10.821078 0 21.439916 1.530874 31.610756 4.677101 10.111961 2.974708 41.625438 7.091172 49.228608 12.159953 6.535655 4.421103 11.443155 9.249244 14.973382 15.068101 2.813429 4.421103 4.047344 8.535007 4.047344 13.00219 0 12.254672-4.372463 44.533586-13.621707 53.460271-9.451483 9.259484-43.069272-8.696286-57.123617-8.696286-18.398648 0-33.27219 14.773702-33.27219 33.023871s14.876102 10.723798 33.27219 10.723798h30.192522c13.393868 0 46.553418 4.351983 56.043302 13.555148 9.279964 8.975325 13.652427 41.215839 13.652427 53.516591 0 12.159953-4.065264 21.324717-13.135309 29.713804-9.538523 8.808926-42.974552 13.002189-56.675619 13.002189-18.396088 0-33.28243-7.539171-33.28243 10.695639 0 18.283449 14.886342 33.072511 33.28243 33.072511h29.091726c6.141416 0 12.093393 1.233915 17.899451 3.711985 6.000617 2.56255 33.37971 28.11637 37.350254 32.240514 4.467183 4.656622 7.976929 9.930201 10.821078 16.081858a41.09552 41.09552 0 0 1 3.607026 16.959933c0 11.950033-3.911665 20.943278-12.751311 28.979087-9.576923 8.773086-43.110232 35.061623-56.923938 35.061624H514.62399c-12.139473 0-13.813706-4.142064-19.619764 6.466534-5.864937 10.616279 7.72093 11.988433 14.271945 22.202794 19.046326 29.227406 33.28499 59.04617 42.419034 88.514215 9.587163 30.86324 16.235457 59.427608 20.003762 84.943028 4.257263 28.682128 8.189408 56.42474 4.746222 81.912001-5.959657 44.295507-36.00882 64.345349-46.379339 73.520353-10.32188 9.231324-22.576552 13.957066-38.60209 13.547467-43.023192-1.087996-62.509836-56.007462-62.509836-56.007461z m0 0"  horiz-adv-x="1024" />

    
    </font>
</defs>
</svg>
